<!--?xml version="1.0" encoding="utf-8"?-->
<!-- Generator: Adobe Illustrator 15.1.0, SVG Export Plug-In . SVG Version: 6.00 Build 0)  -->

<svg version="1.1" id="_x32_" xmlns="http://www.w3.org/2000/svg" xmlns:xlink="http://www.w3.org/1999/xlink" x="0px" y="0px" width="512px" height="512px" viewBox="0 0 512 512" style="width: 256px; height: 256px; opacity: 1;" xml:space="preserve">
<style type="text/css">

	.st0{fill:#4B4B4B;}

</style>
<g>
	<path class="st0" d="M491.951,189.594c-3.516-1.328-7.422,0.453-8.734,3.953c-1.922,5.078-4.047,9.234-6.297,12.547
		c-1.953,2.906-3.969,5.172-5.984,6.938c0-0.188,0-0.391,0-0.578c0-5.063-0.688-9.547-1.969-13.5
		c-1.922-5.938-5.344-10.641-9.594-13.703c-4.219-3.094-9.172-4.469-13.891-4.469c-5.203,0-10.234,1.625-14.391,4.656
		c-2.063,1.563-3.922,3.453-5.375,5.688c-1.469,2.25-2.531,4.844-3.031,7.625c-0.234,1.313-0.344,2.625-0.344,3.906
		c0,4.125,1.125,8.063,3,11.578c2.781,5.297,7.156,9.75,12.5,12.984c3.109,1.891,6.578,3.359,10.281,4.25
		c-0.219,0.188-0.422,0.391-0.656,0.594c-5.594,4.625-13.344,8.5-21.516,11.156c-18.984-26.25-46.906-45.781-79.266-57.047v39.453
		H207.357v-37.453c-11.109,4.016-22.125,8.922-32.891,14.906c-10.531,5.859-19.938,11.938-28.531,18.016
		c-23.188-27.906-81.563-32.563-74.047-10.859c6.813,19.672,16.844,41.234,21.5,54.016c-17.531,14.781-33.766,26.25-55.078,30.219
		c-19.469,3.625-25.266,8.781-21.609,27.813l8.063,63.672c0,0,22.688,13.109,30.75,17.578
		c17.734,9.797,52.672,31.188,104.281,47.094L179.373,512h48.969v-46.25c19.547,2.719,40.594,4.313,63.141,4.313
		c11.719,0,22.734-0.781,33.078-2.266V512h48.969l22.75-71.313c54.141-38.25,67.5-106.719,48.375-161.719
		c-2.969-8.469-6.688-16.469-11.094-24.063c7.313-2.688,14.297-6.188,20.328-10.688c4.484-3.344,8.453-7.266,11.453-11.859
		c0.313-0.453,0.594-0.891,0.859-1.359c0.484-0.156,0.969-0.281,1.453-0.453c5.641-1.984,11.109-5.641,15.922-10.984
		c4.797-5.328,8.984-12.344,12.313-21.234C497.217,194.828,495.451,190.906,491.951,189.594z M98.576,328.25
		c-7.219,0-13.063-5.844-13.063-13.063c0-7.203,5.844-13.063,13.063-13.063c7.203,0,13.047,5.859,13.047,13.063
		C111.623,322.406,105.779,328.25,98.576,328.25z M457.279,215.781c-0.094,1.094-0.266,2.125-0.531,3.156c-0.125,0-0.266,0-0.391,0
		c-2.719,0-5.406-0.531-7.922-1.531c-3.734-1.469-7.047-3.938-9.266-6.688c-1.109-1.375-1.953-2.813-2.484-4.188
		c-0.547-1.375-0.797-2.688-0.797-3.875c0-0.5,0.047-0.984,0.141-1.453c0.172-1.016,0.531-1.859,1.063-2.703
		c0.766-1.188,1.938-2.219,3.438-3c1.469-0.75,3.219-1.188,4.953-1.188c1.391,0,2.781,0.281,4.078,0.844
		c0.969,0.422,1.875,1,2.75,1.781c1.297,1.188,2.5,2.875,3.469,5.375c0.953,2.484,1.594,5.813,1.594,10.141
		C457.373,213.484,457.342,214.625,457.279,215.781z" style="fill: rgb(75, 75, 75);"></path>
	<path class="st0" d="M261.717,131.766h2.781c3.047,0,5.531-2.484,5.531-5.531v-15.906h10.828c14.484,0,26.297-10.328,26.297-23.031
		c0-12.719-11.813-23.047-26.297-23.047h-19.141c-3.063,0-5.531,2.469-5.531,5.531v56.453
		C256.186,129.281,258.654,131.766,261.717,131.766z M270.029,76.406h10.828c6.875,0,12.469,4.875,12.469,10.891
		s-5.594,10.891-12.469,10.891h-10.828V76.406z" style="fill: rgb(75, 75, 75);"></path>
	<path class="st0" d="M276.717,190.047c52.484,0,95.031-42.547,95.031-95C371.748,42.563,329.201,0,276.717,0
		c-52.469,0-95.016,42.563-95.016,95.047C181.701,147.5,224.248,190.047,276.717,190.047z M276.717,14.844
		c44.203,0,80.172,35.984,80.172,80.203c0,44.203-35.969,80.172-80.172,80.172s-80.172-35.969-80.172-80.172
		C196.545,50.828,232.514,14.844,276.717,14.844z" style="fill: rgb(75, 75, 75);"></path>
	<path class="st0" d="M268.201,31.656l0.391-0.031c2.672-0.344,5.406-0.5,8.125-0.5c0.75,0,1.484,0,2.234,0.031h0.094
		c1.594,0,2.906-1.266,2.969-2.859c0.047-1.641-1.234-3.016-2.875-3.078h-0.313h-0.016h-0.047h-0.016l0,0h-0.031h-0.047l0,0h-0.047
		c-0.422,0-0.859-0.031-1.313-0.031h-0.078h-0.016h-0.016l0,0h-0.063h-0.016h-0.016h-0.016h-0.016h-0.016h-0.031h-0.016h-0.016
		h-0.016h-0.031h-0.016h-0.016h-0.016h-0.016h-0.031h-0.016h-0.047h-0.016h-0.016h-0.016h-0.031h-0.031l0,0h-0.031h-0.016h-0.016
		h-0.016h-0.031l0,0h-0.031l0,0h-0.031h-0.016h-0.016h-0.016h-0.031h-0.031h-0.016h-0.016h-0.016h-0.016h-0.016h-0.031h-0.031
		h-0.016h-0.016h-0.016h-0.016h-0.016h-0.031h-0.031l0,0h-0.031h-0.016h-0.016h-0.016h-0.031h-0.031h-0.016h-0.016h-0.047l0,0
		h-0.016h-0.016h-0.031h-0.016l0,0h-0.031h-0.016h-0.016h-0.031l0,0h-0.031h-0.016l0,0h-0.031h-0.016h-0.016h-0.016h-0.016h-0.031
		h-0.016h-0.016h-0.016h-0.016h-0.016h-0.016l0,0h-0.047h-0.016h-0.016h-0.016l-0.016,0.031h-0.016h-0.016h-0.047l0,0h-0.031h-0.031
		l0,0h-0.016h-0.016h-0.047l0,0h-0.016h-0.031h-0.016h-0.016h-0.016h-0.016h-0.031l0,0h-0.031h-0.016h-0.016h-0.016h-0.016h-0.016
		h-0.031l0,0h-0.031h-0.016h-0.016h-0.016h-0.016l0,0h-0.047h-0.031l0,0h-0.031h-0.016h-0.016h-0.031h-0.016h-0.016h-0.016h-0.016
		h-0.016h-0.016h-0.016h-0.016h-0.031l0,0h-0.031h-0.016h-0.016h-0.016h-0.016h-0.031h-0.016l0,0h-0.031h-0.031h-0.016h-0.016
		h-0.047h-0.016h-0.016v0.031h-0.031h-0.031h-0.047h-0.031h-0.031h-0.016h-0.016l0,0h-0.047h-0.031l0,0h-0.031h-0.016h-0.016h-0.047
		l0,0h-0.016h-0.031h-0.016h-0.016h-0.016h-0.016h-0.031l0,0h-0.016h-0.016h-0.031h-0.016h-0.016l0,0h-0.047l0,0h-0.016h-0.016
		h-0.031l0,0h-0.016h-0.031h-0.031l-0.016,0.031h-0.016h-0.031h-0.031h-0.063h-0.016h-0.031h-0.031h-0.063h-0.016h-0.031h-0.031
		h-0.063l0,0l-0.047,0.016h-0.031h-0.063l0,0h-0.031h-0.016h-0.031h-0.063h-0.031l0,0l-0.031,0.016h-0.078h-0.031l0,0h-0.031h-0.078
		h-0.031l0,0l-0.109,0.031h-0.031h-0.031h-0.016h-0.063h-0.031h-0.141c-1.344,0.094-2.688,0.234-4.016,0.391
		c-1.641,0.203-2.781,1.703-2.578,3.328C265.451,30.563,266.732,31.656,268.201,31.656z" style="fill: rgb(75, 75, 75);"></path>
	<path class="st0" d="M240.42,41.844c0.547,0,1.109-0.188,1.609-0.484c2.266-1.484,4.672-2.828,7.094-3.984
		c1.484-0.703,2.125-2.5,1.406-3.969c-0.516-1.078-1.578-1.688-2.688-1.688c-0.438,0-0.859,0.094-1.281,0.313
		c-1,0.469-2,0.969-2.984,1.516l-0.188,0.094l-0.016,0.016l-0.078,0.031h-0.016l-0.063,0.031l0,0l-0.031,0.031h-0.016h-0.016v0.031
		l-0.016,0.016h-0.031l-0.016,0.016l0,0l-0.016,0.016h-0.016l-0.031,0.016l0,0l-0.016,0.016h-0.016l-0.031,0.016l0,0h-0.031l0,0
		l-0.031,0.031h-0.016l0,0l-0.016,0.016l-0.016,0.016l-0.031,0.016l0,0l-0.016,0.016h-0.016l0,0h-0.047L242.732,34l0,0h-0.016
		h-0.031l0,0l-0.016,0.031l-0.016,0.031h-0.016h-0.016l-0.031,0.016l-0.063,0.047h-0.016h-0.016l-0.063,0.031l-0.016,0.031h-0.016
		l-0.078,0.047c-1.203,0.688-2.375,1.391-3.531,2.141c-1.375,0.891-1.766,2.719-0.875,4.109
		C238.482,41.359,239.436,41.844,240.42,41.844z" style="fill: rgb(75, 75, 75);"></path>
	<path class="st0" d="M246.795,151.906c-1.078,0-2.125,0.594-2.656,1.625c-0.719,1.469-0.125,3.25,1.344,4
		c0.906,0.438,1.813,0.891,2.75,1.281l0.094,0.063h0.016l0.063,0.047h0.016h0.047l0.016,0.016l0.031,0.031h0.016h0.016l0.031,0.031
		h0.031h0.016h0.016h0.016l0.016,0.031h0.047v0.016h0.031v0.016h0.016l0,0l0.047,0.016l0.016,0.016h0.016h0.016h0.016l0.016,0.031
		h0.031l0,0l0.016,0.016h0.016l0.016,0.016h0.016l0.047,0.016l0,0l0.016,0.016h0.031v0.016l0.031,0.016l0,0l0.031,0.031h0.016h0.016
		l0,0h0.047v0.016h0.016h0.016l0.016,0.016h0.016l0.047,0.031h0.016l0.016,0.016l0,0l0.063,0.016h0.016l0.016,0.016h0.016
		l0.031,0.016l0.031,0.031h0.031l0,0l0.016,0.016l0,0l0.078,0.016l0.031,0.016l0.063,0.031l0.031,0.016l0.063,0.031h0.016
		l0.016,0.016h0.016l0.047,0.016l0.031,0.031l0.094,0.031h0.016l0.094,0.031l0.031,0.031l0.063,0.016h0.016h0.016l0.063,0.047h0.016
		h0.016h0.016l0.016,0.016l0.063,0.047h0.031l0.078,0.031h0.016h0.016l0.063,0.016l0.031,0.016l0,0l0.063,0.047h0.031l0.078,0.031
		l0,0h0.016l0.016,0.016l0,0h0.016l0.063,0.031l0.016,0.016h0.031l0,0l0.063,0.031l0,0h0.016l0.031,0.016h0.016l0.031,0.016l0,0
		h0.031l0.016,0.016h0.016l0,0l0.047,0.031l0,0h0.016h0.016h0.016l0.031,0.031h0.016h0.016h0.031v0.016h0.016v0.016h0.031
		l0.031,0.016l0,0h0.016l0.016,0.016h0.031l0.016,0.031l0,0h0.016h0.031h0.016l0,0h0.031v0.031l0.047,0.016h0.016v0.016h0.047
		l0.016,0.016h0.016l0.031,0.016l0,0h0.031l0.031,0.016l0.031,0.016l0.031,0.016h0.016h0.016l0.031,0.031h0.016h0.016l0.063,0.031
		h0.016h0.016c0.5,0.203,1,0.359,1.484,0.547c0.328,0.094,0.656,0.172,0.984,0.172c1.234,0,2.375-0.781,2.797-2.016
		c0.547-1.531-0.266-3.234-1.813-3.781c-2.563-0.875-5.078-1.953-7.5-3.156C247.701,152,247.264,151.906,246.795,151.906z" style="fill: rgb(75, 75, 75);"></path>
	<path class="st0" d="M223.92,133.125c-0.641,0-1.297,0.188-1.828,0.609c-1.297,1.016-1.531,2.875-0.531,4.156
		c0.531,0.688,1.094,1.391,1.672,2.047l0.031,0.063l0.016,0.016h0.031l0.016,0.078h0.016v0.031h0.031l0,0h0.016l0.016,0.031v0.016
		l0.016,0.016h0.016l0.016,0.031l0,0l0.016,0.016h0.016v0.016l0.016,0.031h0.016l0.016,0.031v0.031h0.016h0.016v0.016h0.031v0.031
		l0.031,0.016v0.016l0.016,0.016l0,0l0.047,0.063l0,0l0.016,0.016l0.063,0.063l0.016,0.016c1.172,1.391,2.406,2.703,3.688,3.969
		c0.594,0.594,1.344,0.859,2.109,0.859c0.75,0,1.516-0.266,2.094-0.859c1.172-1.156,1.172-3.063-0.016-4.203
		c-1.906-1.906-3.719-3.953-5.406-6.109C225.67,133.5,224.795,133.125,223.92,133.125z" style="fill: rgb(75, 75, 75);"></path>
	<path class="st0" d="M210.201,91.031c1.5,0,2.797-1.141,2.953-2.656c0.281-2.688,0.734-5.406,1.359-8.031
		c0.359-1.594-0.625-3.188-2.219-3.578l-0.688-0.078c-1.344,0-2.563,0.938-2.875,2.297c-0.688,2.875-1.188,5.797-1.484,8.766
		c-0.172,1.641,1.016,3.109,2.641,3.281H210.201z" style="fill: rgb(75, 75, 75);"></path>
	<path class="st0" d="M226.951,54.938c1.031-1.281,0.828-3.141-0.453-4.172c-0.547-0.453-1.203-0.641-1.859-0.641
		c-0.875,0-1.734,0.359-2.297,1.094c-0.5,0.594-0.969,1.203-1.438,1.828l-0.047,0.063l-0.016,0.016l0,0l-0.063,0.094h-0.016
		l-0.047,0.063l-0.063,0.094l-0.078,0.063v0.016l-0.109,0.156c-0.781,1.063-1.531,2.172-2.266,3.266l-0.063,0.094v0.016
		l-0.047,0.031v0.016v0.031l-0.016,0.031l-0.031,0.031l-0.016,0.016h-0.016v0.016v0.031l-0.016,0.031l-0.016,0.016h-0.016
		l-0.016,0.016v0.016l-0.016,0.016v0.016v0.016h-0.016l-0.016,0.031v0.016h-0.016l-0.016,0.047l0,0h-0.016l-0.016,0.016
		l-0.016,0.016l-0.016,0.031V57.5h-0.016l-0.016,0.047l-0.047,0.047c-0.172,0.313-0.375,0.594-0.547,0.891
		c-0.844,1.391-0.422,3.234,0.969,4.078c0.484,0.313,1.031,0.438,1.547,0.438c1,0,1.984-0.484,2.547-1.406
		C223.654,59.297,225.232,57.063,226.951,54.938z" style="fill: rgb(75, 75, 75);"></path>
	<path class="st0" d="M214.264,108.656c-0.297-1.406-1.531-2.344-2.891-2.344l-0.656,0.063c-1.578,0.359-2.609,1.906-2.25,3.531
		c0.625,2.938,1.438,5.781,2.438,8.563c0.422,1.234,1.563,1.969,2.781,1.969c0.344,0,0.688-0.047,1-0.172
		c1.547-0.547,2.344-2.234,1.813-3.797C215.576,113.938,214.826,111.281,214.264,108.656z" style="fill: rgb(75, 75, 75);"></path>
	<path class="st0" d="M303.311,153.172c-1.5,0.672-2.156,2.453-1.469,3.938c0.5,1.109,1.578,1.734,2.703,1.734
		c0.406,0,0.844-0.094,1.234-0.281c1.641-0.766,3.25-1.563,4.813-2.422l0.031-0.016l0.063-0.047l0.047-0.016l0.047-0.047
		l0.031-0.016h0.031l0.031-0.031l0,0h0.016l0.016-0.016h0.016l0.016-0.016l0.016-0.016h0.016l0.016-0.016h0.031h0.016l0.031-0.031
		h0.016h0.016l0.016-0.031l0,0h0.016h0.031v-0.047h0.031h0.016l0.016-0.016l0,0l0.047-0.031v-0.016h0.016l0.016-0.016h0.016
		l0.063-0.031l0,0l0.016-0.016c0.766-0.422,1.5-0.859,2.234-1.328c1.391-0.859,1.813-2.688,0.953-4.094
		c-0.578-0.875-1.547-1.406-2.531-1.406c-0.531,0-1.078,0.156-1.563,0.469C308.17,150.75,305.764,152.063,303.311,153.172z" style="fill: rgb(75, 75, 75);"></path>
	<path class="st0" d="M330.607,129.406c-1.453,2.281-3.078,4.5-4.813,6.594c-1.063,1.234-0.891,3.125,0.375,4.156
		c0.547,0.469,1.219,0.703,1.906,0.703c0.844,0,1.703-0.359,2.266-1.047c1.531-1.844,3-3.781,4.328-5.781l0.016-0.016l0,0
		l0.063-0.047v-0.031v-0.016l0.016-0.031l0.031-0.031v-0.016v-0.016l0.031-0.016l0.016-0.031h0.016v-0.031v-0.016l0.016-0.016h0.016
		l0.016-0.031l0,0l0.016-0.031h0.016v-0.016v-0.016l0.016-0.016l0.016-0.016h0.016v-0.031l0.047-0.063l0,0l0.016-0.016v-0.016
		l0.047-0.047v-0.016l0.016-0.031l0,0l0.063-0.063v-0.031l0.438-0.656c0.891-1.375,0.484-3.219-0.906-4.109
		c-0.484-0.328-1.047-0.469-1.594-0.469C332.139,128.047,331.17,128.516,330.607,129.406z" style="fill: rgb(75, 75, 75);"></path>
	<path class="st0" d="M339.404,82.5c0.281,1.422,1.531,2.406,2.906,2.406l0.578-0.063c1.609-0.313,2.672-1.875,2.344-3.5L345.154,81
		v-0.016l-0.016-0.047v-0.047v-0.047l-0.016-0.063l0,0l-0.031-0.031v-0.016v-0.016v-0.063l-0.016-0.016v-0.016v-0.016v-0.016v-0.016
		v-0.031l-0.016-0.016v-0.016V80.5l0,0v-0.031v-0.031l-0.031-0.016v-0.016v-0.031l-0.016-0.016v-0.016v-0.016v-0.016v-0.016
		l-0.016-0.031V80.25v-0.031l-0.016-0.031v-0.047h-0.016v-0.031l-0.016-0.016v-0.047v-0.016l-0.016-0.016v-0.078v-0.031
		l-0.031-0.094v-0.031v-0.016l-0.031-0.047v-0.063l-0.031-0.094l-0.031-0.125c-0.344-1.516-0.734-3.031-1.188-4.531l-0.031-0.109
		l-0.063-0.203v-0.016l-0.031-0.125l-0.047-0.094v-0.047l-0.031-0.094l-0.031-0.094v-0.016l-0.016-0.016l-0.016-0.063L343.342,74
		v-0.016l-0.016-0.063l-0.016-0.031v-0.047h-0.016v-0.016l-0.016-0.031l0,0l-0.016-0.031V73.75l-0.016-0.016v-0.031v-0.016h-0.016
		v-0.031v-0.016v-0.016l-0.016-0.031l-0.016-0.031v-0.031l0,0l-0.016-0.031l-0.016-0.031v-0.016v-0.031v-0.016h-0.016v-0.031
		l-0.016-0.016v-0.016v-0.016l-0.031-0.016v-0.031l-0.016-0.031l0,0v-0.031v-0.016l-0.016-0.016l0,0v-0.031v-0.016l-0.016-0.016l0,0
		v-0.031l-0.016-0.016l-0.016-0.016v-0.016v-0.016v-0.016L343.014,73v-0.031l0,0l-0.031-0.063v-0.031h-0.016v-0.031v-0.031
		l-0.016-0.031l-0.016-0.016V72.75l0,0c-0.422-1.25-1.578-2.031-2.813-2.031c-0.313,0-0.641,0.047-0.953,0.156
		c-1.563,0.531-2.391,2.203-1.859,3.75C338.17,77.203,338.873,79.844,339.404,82.5z" style="fill: rgb(75, 75, 75);"></path>
	<path class="st0" d="M284.076,158.563h-0.313c-2.344,0.25-4.703,0.375-7.047,0.375c-0.375,0-0.734,0-1.094,0h-0.078
		c-1.609,0-2.938,1.313-2.953,2.922c-0.031,1.641,1.266,2.984,2.906,3.016c0.328,0,0.625,0,0.938,0.016h0.031h0.047l0,0h0.031h0.016
		h0.016h0.016h0.016h0.031h0.016h0.031l0,0h0.031h0.031h0.016h0.016l0,0h0.016h0.031h0.016h0.016h0.016h0.016h0.016h0.016l0,0h0.016
		h0.016h0.031l0,0h0.016h0.016h0.016h0.016h0.016h0.016l0,0h0.063h0.047h0.016h0.016l0.016-0.016h0.016l0,0h0.031l0,0h0.016h0.031
		h0.016h0.016l0,0h0.031l0,0h0.016h0.016h0.016h0.016h0.016h0.016h0.047h0.016h0.031l0,0h0.016h0.016h0.016h0.016h0.016h0.031h0.016
		h0.016h0.031h0.016h0.016l0,0h0.016l0,0h0.047h0.016h0.078h0.031l0,0h0.031l0,0h0.031h0.016h0.016l0,0h0.016l0,0h0.031h0.016h0.016
		l0,0h0.031h0.016h0.016l0,0h0.031h0.125h0.031h0.016h0.016h0.031h0.031h0.016l0,0h0.047h0.016h0.047l0,0l0.234-0.031h0.047h0.016
		c1.844-0.031,3.688-0.188,5.5-0.375c1.625-0.188,2.813-1.641,2.625-3.281C286.857,159.688,285.592,158.563,284.076,158.563z" style="fill: rgb(75, 75, 75);"></path>
	<path class="st0" d="M343.107,100.188c-1.469,0-2.766,1.109-2.938,2.625c-0.344,2.672-0.844,5.375-1.5,8
		c-0.406,1.578,0.563,3.188,2.141,3.594l0.734,0.109c1.328,0,2.531-0.891,2.875-2.234c0.156-0.609,0.313-1.219,0.438-1.813v-0.016
		l0.016-0.016v-0.094l0.016-0.016v-0.016h0.016v-0.031l0.016-0.031v-0.031l0,0l0,0v-0.031l0,0l0.016-0.031v-0.016v-0.016v-0.016
		v-0.016v-0.031l0.016-0.016v-0.031v-0.031v-0.016l0.016-0.031l0,0l0.031-0.063l0,0v-0.031v-0.031l0.016-0.078l0.016-0.016v-0.031
		l0.031-0.078c0.422-2.016,0.75-4.047,1-6.094c0.203-1.641-0.969-3.109-2.578-3.297L343.107,100.188z" style="fill: rgb(75, 75, 75);"></path>
	<path class="st0" d="M298.857,35.047c2.531,0.938,5.031,2.047,7.422,3.313c0.453,0.234,0.906,0.359,1.375,0.359
		c1.078,0,2.109-0.609,2.641-1.625c0.766-1.438,0.203-3.234-1.25-3.984c-1.797-0.953-3.641-1.828-5.547-2.594V30.5l-0.094-0.031l0,0
		l-0.031-0.016l-0.063-0.031h-0.031v-0.016l-0.063-0.016h-0.031l-0.109-0.047l0,0l-0.094-0.047l-0.016-0.016l-0.063-0.031h-0.016
		l-0.031-0.016l-0.063-0.016l-0.031-0.031h-0.063h-0.016l-0.031-0.016l-0.094-0.047l-0.078-0.031
		c-0.531-0.203-1.047-0.406-1.578-0.609c-0.344-0.125-0.688-0.188-1.016-0.188c-1.219,0-2.359,0.75-2.797,1.953
		C296.514,32.781,297.311,34.5,298.857,35.047z" style="fill: rgb(75, 75, 75);"></path>
	<path class="st0" d="M327.857,56.688c0.578,0.781,1.453,1.188,2.375,1.188c0.625,0,1.25-0.188,1.781-0.594
		c1.313-0.969,1.563-2.844,0.578-4.156c-1-1.328-2.031-2.641-3.125-3.875l-0.031-0.047h-0.016l-0.016-0.031l-0.047-0.047
		l-0.016-0.031h-0.016l-0.016-0.016v-0.016l-0.016-0.016l0,0l-0.016-0.016v-0.016l-0.031-0.047h-0.016l0,0l-0.031-0.016
		l-0.016-0.016l-0.016-0.016l-0.016-0.047l0,0l-0.016-0.016l-0.031-0.016l-0.016-0.031l-0.016-0.016v-0.016h-0.016l-0.016-0.016
		l-0.016-0.016l-0.016-0.016l0,0l-0.016-0.031v-0.016h-0.031l-0.016-0.016v-0.016h-0.016l0,0l-0.016-0.031l-0.016-0.016
		l-0.047-0.047l-0.016-0.031h-0.016l-0.031-0.047v-0.016l-0.016-0.016h-0.016l-0.031-0.047v-0.016l-0.031-0.016h-0.016l-0.031-0.047
		l0,0l-0.016-0.016h-0.016l-0.031-0.063h-0.016l-0.016-0.031l-0.078-0.078l-0.063-0.047v-0.031l-0.141-0.141
		c-0.484-0.516-0.969-1.047-1.469-1.563c-0.578-0.594-1.344-0.891-2.125-0.891c-0.75,0-1.484,0.266-2.078,0.828
		c-1.172,1.141-1.203,3.031-0.047,4.188C324.451,52.453,326.232,54.516,327.857,56.688z" style="fill: rgb(75, 75, 75);"></path>
</g>
</svg>
