<!--?xml version="1.0" encoding="utf-8"?-->
<!-- Generator: Adobe Illustrator 18.1.1, SVG Export Plug-In . SVG Version: 6.00 Build 0)  -->

<svg version="1.1" id="_x32_" xmlns="http://www.w3.org/2000/svg" xmlns:xlink="http://www.w3.org/1999/xlink" x="0px" y="0px" viewBox="0 0 512 512" style="width: 256px; height: 256px; opacity: 1;" xml:space="preserve">
<style type="text/css">
	.st0{fill:#4B4B4B;}
</style>
<g>
	<path class="st0" d="M215.402,437.214H26.364C11.797,437.214,0,449.011,0,463.571v29.428h241.749v-29.428
		C241.749,449.011,229.953,437.214,215.402,437.214z" style="fill: rgb(75, 75, 75);"></path>
	<path class="st0" d="M204.557,406.227c0-14.559-11.797-26.356-26.356-26.356H63.549c-14.558,0-26.356,11.797-26.356,26.356v17.034
		h167.364V406.227z" style="fill: rgb(75, 75, 75);"></path>
	<path class="st0" d="M129.388,311.01c51.39,44.821,74.125,55.052,89.5,41.664c15.376-13.388-5.583-24.722,10.812-43.508
		l-112.118-97.786c-16.385,18.786-30.465-0.429-41.639,16.622C64.762,245.053,77.998,266.196,129.388,311.01z" style="fill: rgb(75, 75, 75);"></path>
	<path class="st0" d="M354.76,165.758c16.395-18.794,30.465,0.438,41.647-16.622c11.174-17.052-2.063-38.187-53.453-83.009
		c-51.398-44.814-74.124-55.053-89.508-41.664c-15.376,13.38,5.591,24.714-10.803,43.508L354.76,165.758z" style="fill: rgb(75, 75, 75);"></path>
	<polygon class="st0" points="344.175,177.9 232.058,80.106 128.167,199.246 240.284,297.032 	" style="fill: rgb(75, 75, 75);"></polygon>
	<path class="st0" d="M498.723,366.146c-10.223-8.925-23.812-11.502-35.972-8.092c7.343-20.419-16.2-28.646-43.264-49.587
		c-33.816-26.162-90.662-72.399-99.074-79.742l-33,37.85c8.412,7.317,61.958,57.368,92.465,87.302
		c24.428,23.965,35.787,46.169,55.011,36.123c-1.726,12.504,2.686,25.623,12.908,34.541c16.125,14.07,40.595,12.386,54.666-3.739
		C516.516,404.678,514.848,380.209,498.723,366.146z" style="fill: rgb(75, 75, 75);"></path>
</g>
</svg>
