<?xml version="1.0" encoding="UTF-8" standalone="no" ?>
<!DOCTYPE svg PUBLIC "-//W3C//DTD SVG 1.1//EN" "http://www.w3.org/Graphics/SVG/1.1/DTD/svg11.dtd">
<svg xmlns="http://www.w3.org/2000/svg" xmlns:xlink="http://www.w3.org/1999/xlink" version="1.1" width="445" height="445" viewBox="0 0 445 445" xml:space="preserve">
<desc>Created with Fabric.js 1.7.22</desc>
<defs>
</defs>
<g id="icon" style="stroke: none; stroke-width: 1; stroke-dasharray: none; stroke-linecap: butt; stroke-linejoin: miter; stroke-miterlimit: 10; fill: none; fill-rule: nonzero; opacity: 1;" transform="translate(-2.4722222222222285 -2.4722222222222285) scale(4.94 4.94)" >
	<path d="M 33.306 3.331 c 5.076 0 9.849 1.977 13.438 5.566 c 3.589 3.589 5.566 8.362 5.566 13.438 c 0 5.076 -1.977 9.849 -5.566 13.438 c -3.589 3.589 -8.362 5.566 -13.438 5.566 c -5.076 0 -9.849 -1.977 -13.438 -5.566 c -7.41 -7.41 -7.41 -19.467 0 -26.876 C 23.457 5.307 28.23 3.331 33.306 3.331" style="stroke: none; stroke-width: 1; stroke-dasharray: none; stroke-linecap: butt; stroke-linejoin: miter; stroke-miterlimit: 10; fill: rgb(252,198,45); fill-rule: nonzero; opacity: 1;" transform=" matrix(1 0 0 1 0 0) " stroke-linecap="round" />
	<path d="M 25.881 39.266 c 6.412 0 12.44 2.497 16.975 7.031 s 7.031 10.562 7.031 16.975 c 0 6.412 -2.497 12.44 -7.031 16.975 c -4.534 4.534 -10.562 7.031 -16.975 7.031 c -6.412 0 -12.44 -2.497 -16.975 -7.031 c -9.36 -9.36 -9.36 -24.589 0 -33.949 C 13.44 41.763 19.469 39.266 25.881 39.266" style="stroke: none; stroke-width: 1; stroke-dasharray: none; stroke-linecap: butt; stroke-linejoin: miter; stroke-miterlimit: 10; fill: rgb(252,198,45); fill-rule: nonzero; opacity: 1;" transform=" matrix(1 0 0 1 0 0) " stroke-linecap="round" />
	<path d="M 56.349 20.076 l 4.609 -1.048 c 0.112 -0.025 0.221 -0.037 0.331 -0.037 c 0.68 0 1.296 0.469 1.453 1.159 l 0.448 1.968 l -7.515 1.71 l -0.448 -1.967 C 55.045 21.058 55.548 20.258 56.349 20.076 z" style="stroke: none; stroke-width: 1; stroke-dasharray: none; stroke-linecap: butt; stroke-linejoin: miter; stroke-miterlimit: 10; fill: rgb(110,140,97); fill-rule: nonzero; opacity: 1;" transform=" matrix(1 0 0 1 0 0) " stroke-linecap="round" />
	<path d="M 40.059 44.29 c 1.504 -5.531 6.407 -10.757 13.295 -14.007 l 1.127 -0.531 l -0.569 -2.498 c -0.053 -0.236 0.094 -0.471 0.33 -0.525 l 11.431 -2.601 c 0.24 -0.055 0.471 0.094 0.524 0.329 l 0.569 2.5 l 1.245 -0.009 c 0.075 -0.001 0.148 -0.001 0.222 -0.001 c 7.525 0 14.114 2.582 17.826 6.875 l -16.857 3.836 l 1.147 5.043 c 0.063 0.274 -0.11 0.549 -0.384 0.611 l -1.026 0.234 l -10.264 2.335 c -0.281 0.062 -0.548 -0.11 -0.61 -0.384 l -1.148 -5.043 L 40.059 44.29 z" style="stroke: none; stroke-width: 1; stroke-dasharray: none; stroke-linecap: butt; stroke-linejoin: miter; stroke-miterlimit: 10; fill: rgb(233,232,211); fill-rule: nonzero; opacity: 1;" transform=" matrix(1 0 0 1 0 0) " stroke-linecap="round" />
	<path d="M 76.458 86.601 l -4.819 1.096 c -0.405 0.095 -0.821 0.022 -1.175 -0.2 c -0.351 -0.221 -0.596 -0.567 -0.688 -0.972 L 60.67 46.508 l 7.855 -1.788 l 9.106 40.016 C 77.822 85.574 77.295 86.411 76.458 86.601 z" style="stroke: none; stroke-width: 1; stroke-dasharray: none; stroke-linecap: butt; stroke-linejoin: miter; stroke-miterlimit: 10; fill: rgb(110,140,97); fill-rule: nonzero; opacity: 1;" transform=" matrix(1 0 0 1 0 0) " stroke-linecap="round" />
	<path d="M 25.886 89.158 C 11.612 89.158 0 77.545 0 63.272 c 0 -14.274 11.612 -25.887 25.886 -25.887 c 1.568 0 3.14 0.142 4.672 0.421 c 0.807 0.147 1.342 0.921 1.195 1.728 c -0.147 0.808 -0.919 1.342 -1.728 1.195 c -1.357 -0.248 -2.749 -0.373 -4.139 -0.373 c -12.635 0 -22.915 10.28 -22.915 22.916 c 0 12.635 10.28 22.915 22.915 22.915 c 12.636 0 22.916 -10.28 22.916 -22.915 c 0 -4.07 -1.08 -8.067 -3.124 -11.559 c -0.414 -0.708 -0.177 -1.618 0.531 -2.033 c 0.706 -0.412 1.617 -0.177 2.033 0.532 c 2.31 3.948 3.531 8.463 3.531 13.06 C 51.773 77.545 40.16 89.158 25.886 89.158 z" style="stroke: none; stroke-width: 1; stroke-dasharray: none; stroke-linecap: butt; stroke-linejoin: miter; stroke-miterlimit: 10; fill: rgb(69,86,60); fill-rule: nonzero; opacity: 1;" transform=" matrix(1 0 0 1 0 0) " stroke-linecap="round" />
	<path d="M 34.572 67.82 c -0.821 0 -1.486 0.665 -1.486 1.486 c 0 1.426 -0.932 2.63 -2.036 2.63 h -10.33 c -1.104 0 -2.036 -1.204 -2.036 -2.63 V 57.237 c 0 -1.425 0.932 -2.629 2.036 -2.629 h 10.33 c 1.104 0 2.036 1.204 2.036 2.629 c 0 0.82 0.665 1.486 1.486 1.486 s 1.486 -0.665 1.486 -1.486 c 0 -3.088 -2.246 -5.6 -5.007 -5.6 h -3.679 v -2.688 c 0 -0.821 -0.665 -1.486 -1.486 -1.486 s -1.486 0.665 -1.486 1.486 v 2.688 h -3.679 c -2.761 0 -5.007 2.512 -5.007 5.6 v 12.069 c 0 3.088 2.246 5.601 5.007 5.601 h 3.679 v 2.688 c 0 0.82 0.665 1.486 1.486 1.486 s 1.486 -0.665 1.486 -1.486 v -2.688 h 3.679 c 2.761 0 5.007 -2.513 5.007 -5.601 C 36.058 68.486 35.393 67.82 34.572 67.82 z" style="stroke: none; stroke-width: 1; stroke-dasharray: none; stroke-linecap: butt; stroke-linejoin: miter; stroke-miterlimit: 10; fill: rgb(69,86,60); fill-rule: nonzero; opacity: 1;" transform=" matrix(1 0 0 1 0 0) " stroke-linecap="round" />
	<path d="M 71.421 45.403 c 1.198 -0.764 1.858 -2.214 1.526 -3.676 l -0.442 -1.939 L 90 35.806 l -1.088 -1.766 c -3.572 -5.803 -11.137 -9.467 -19.926 -9.718 l -0.02 -0.091 c -0.331 -1.449 -1.553 -2.456 -2.955 -2.604 l -0.477 -2.1 c -0.542 -2.373 -2.912 -3.869 -5.286 -3.325 l -4.472 1.017 c -2.373 0.541 -3.866 2.912 -3.326 5.286 l 0.478 2.099 c -1.199 0.741 -1.866 2.177 -1.537 3.627 l 0.02 0.089 c -7.815 4.03 -13.049 10.607 -13.758 17.383 l -0.216 2.063 l 17.495 -3.981 l 0.441 1.939 c 0.333 1.463 1.555 2.489 2.967 2.658 l 8.497 37.337 c 0.262 1.151 0.956 2.131 1.955 2.758 c 0.713 0.449 1.52 0.68 2.342 0.68 c 0.329 0 0.66 -0.037 0.988 -0.111 l 4.472 -1.017 c 2.373 -0.541 3.866 -2.911 3.326 -5.286 L 71.421 45.403 z M 56.434 20.116 l 4.471 -1.017 c 0.108 -0.025 0.215 -0.036 0.321 -0.036 c 0.66 0 1.257 0.455 1.409 1.124 l 0.434 1.909 l -7.289 1.659 l -0.434 -1.908 C 55.169 21.069 55.658 20.293 56.434 20.116 z M 41.003 43.909 c 1.442 -5.304 6.144 -10.316 12.749 -13.432 l 1.08 -0.509 l -0.545 -2.396 c -0.051 -0.226 0.09 -0.452 0.316 -0.503 l 10.962 -2.494 c 0.23 -0.053 0.452 0.09 0.503 0.315 l 0.545 2.398 l 1.193 -0.008 c 0.072 0 0.142 -0.001 0.213 -0.001 c 7.216 0 13.534 2.476 17.094 6.593 l -16.165 3.678 l 1.1 4.836 c 0.06 0.263 -0.105 0.526 -0.368 0.586 l -0.984 0.224 l -9.842 2.239 c -0.269 0.06 -0.526 -0.106 -0.585 -0.368 l -1.101 -4.836 L 41.003 43.909 z M 75.933 85.132 l -4.472 1.017 c -0.376 0.088 -0.762 0.02 -1.09 -0.186 c -0.326 -0.205 -0.553 -0.526 -0.638 -0.902 l -8.45 -37.132 l 7.288 -1.659 l 8.45 37.131 C 77.198 84.18 76.71 84.956 75.933 85.132 z" style="stroke: none; stroke-width: 1; stroke-dasharray: none; stroke-linecap: butt; stroke-linejoin: miter; stroke-miterlimit: 10; fill: rgb(69,86,60); fill-rule: nonzero; opacity: 1;" transform=" matrix(1 0 0 1 0 0) " stroke-linecap="round" />
	<path d="M 16.534 34.725 c -0.486 0 -0.961 -0.237 -1.246 -0.675 c -2.27 -3.486 -3.471 -7.537 -3.471 -11.715 c 0 -11.852 9.642 -21.494 21.493 -21.494 c 8.384 0 16.058 4.926 19.549 12.551 c 0.342 0.746 0.015 1.627 -0.731 1.969 c -0.748 0.342 -1.628 0.014 -1.969 -0.732 C 47.15 8.058 40.536 3.812 33.31 3.812 c -10.213 0 -18.522 8.309 -18.522 18.523 c 0 3.601 1.033 7.092 2.989 10.094 c 0.448 0.688 0.253 1.608 -0.434 2.056 C 17.093 34.647 16.812 34.725 16.534 34.725 z" style="stroke: none; stroke-width: 1; stroke-dasharray: none; stroke-linecap: butt; stroke-linejoin: miter; stroke-miterlimit: 10; fill: rgb(69,86,60); fill-rule: nonzero; opacity: 1;" transform=" matrix(1 0 0 1 0 0) " stroke-linecap="round" />
	<path d="M 40.433 25.798 c -0.821 0 -1.486 0.665 -1.486 1.486 c 0 1.024 -0.642 1.888 -1.402 1.888 h -8.47 c -0.76 0 -1.402 -0.865 -1.402 -1.888 v -9.896 c 0 -1.024 0.642 -1.888 1.402 -1.888 h 8.47 c 0.76 0 1.402 0.865 1.402 1.888 c 0 0.821 0.665 1.486 1.486 1.486 s 1.486 -0.665 1.486 -1.486 c 0 -2.679 -1.962 -4.859 -4.373 -4.859 h -2.75 v -1.937 c 0 -0.821 -0.665 -1.486 -1.486 -1.486 s -1.486 0.665 -1.486 1.486 v 1.937 h -2.749 c -2.412 0 -4.373 2.18 -4.373 4.859 v 9.896 c 0 2.679 1.962 4.859 4.373 4.859 h 2.749 v 1.937 c 0 0.821 0.665 1.486 1.486 1.486 s 1.486 -0.665 1.486 -1.486 v -1.937 h 2.75 c 2.411 0 4.373 -2.18 4.373 -4.859 C 41.918 26.463 41.254 25.798 40.433 25.798 z" style="stroke: none; stroke-width: 1; stroke-dasharray: none; stroke-linecap: butt; stroke-linejoin: miter; stroke-miterlimit: 10; fill: rgb(69,86,60); fill-rule: nonzero; opacity: 1;" transform=" matrix(1 0 0 1 0 0) " stroke-linecap="round" />
</g>
</svg>