<?xml version="1.0" encoding="UTF-8" standalone="no"?>
<svg
   xmlns:dc="http://purl.org/dc/elements/1.1/"
   xmlns:cc="http://creativecommons.org/ns#"
   xmlns:rdf="http://www.w3.org/1999/02/22-rdf-syntax-ns#"
   xmlns:svg="http://www.w3.org/2000/svg"
   xmlns="http://www.w3.org/2000/svg"
   viewBox="0 0 4000 4000"
   height="4000"
   width="4000"
   xml:space="preserve"
   id="svg2"
   version="1.1"><metadata
     id="metadata8"><rdf:RDF><cc:Work
         rdf:about=""><dc:format>image/svg+xml</dc:format><dc:type
           rdf:resource="http://purl.org/dc/dcmitype/StillImage" /></cc:Work></rdf:RDF></metadata><defs
     id="defs6"><clipPath
       id="clipPath18"
       clipPathUnits="userSpaceOnUse"><path
         id="path16"
         d="M 0,3000 H 3000 V 0 H 0 Z" /></clipPath></defs><g
     transform="matrix(1.3333333,0,0,-1.3333333,0,4000)"
     id="g10"><g
       id="g12"><g
         clip-path="url(#clipPath18)"
         id="g14"><g
           transform="translate(548.1982,1687.1104)"
           id="g20"><path
             id="path22"
             style="fill:#ef5f36;fill-opacity:1;fill-rule:nonzero;stroke:none"
             d="m 0,0 c 0,0 -58.177,1.457 -95.068,2.607 -36.89,1.15 -66.833,-7.433 -80.119,-8.134 -13.285,-0.701 -13.039,-4.647 11.441,-10.439 24.481,-5.792 50.43,-21.355 76.563,-23.38 26.134,-2.025 45.703,-9.114 56.948,-9.399 11.246,-0.285 26.193,-18.634 28.389,-4.888 C 0.35,-39.887 0,0 0,0" /></g><g
           transform="translate(481.3789,1640.9531)"
           id="g24"><path
             id="path26"
             style="fill:#231f20;fill-opacity:1;fill-rule:nonzero;stroke:none"
             d="m 0,0 c 2.667,-1.257 2.249,-1.065 4.571,-1.883 5.545,-1.952 44.74,-17.206 93.459,-24.268 41.402,-6.002 44.052,-2.659 100.868,-9.243 56.817,-6.583 68.306,-12.698 153.679,-78.386 117.72,-90.576 113.08,-118.77 224.733,-208.919 116.951,-94.427 142.405,-140.998 334.446,-203.601 169.787,-55.348 185.662,-45.347 282.938,-55.517 152.182,-15.912 528.191,-73.473 684.651,-98.487 29.279,-4.68 190.166,11.143 190.166,11.143 l -307.175,139.598 c 0,0 -80.969,37.074 -172.412,64.235 -91.629,27.217 -130.985,138.38 -435.243,248.992 C 809.553,-90.867 826.206,-223.73 653.586,-147.649 480.968,-71.568 350.633,-6.062 239.211,36.883 183.421,58.386 185.615,65.321 167.229,76.154 134.729,95.303 97.061,110.206 48.798,105.596 27.829,103.593 -7.446,99.357 -25.915,84.053 -38.281,73.805 -50.873,39.172 -40.074,27.691 -19.964,6.309 -2.175,1.025 0,0" /></g><g
           transform="translate(1319.7549,1364.8916)"
           id="g28"><path
             id="path30"
             style="fill:#231f20;fill-opacity:1;fill-rule:nonzero;stroke:none"
             d="m 0,0 c -56.279,99.662 -25.819,79.312 -94.558,226.331 -66.642,142.534 -61.302,216.416 -106.25,314.058 -44.948,97.643 -34.963,113.069 -3.596,159.55 82.588,122.385 74.411,71.512 156.137,164.718 59.41,67.756 14.361,11.635 73.732,82.829 8.112,9.726 8.967,5.635 32.46,31.098 9.204,9.977 8.68,2.591 12.432,-8.642 70.729,-211.71 33.758,-34.23 74.337,-248.325 18.886,-99.638 28.849,-78.74 82.752,-270.409 53.891,-191.623 33.905,-89.333 73.205,-240.526 C 339.951,59.488 379.734,36.847 339.6,12.825 299.465,-11.197 277.713,-22.908 186.086,-45.547 94.458,-68.185 85.557,-74.393 56.425,-84.788 27.293,-95.184 0,0 0,0" /></g><g
           transform="translate(1435.2725,2149.4526)"
           id="g32"><path
             id="path34"
             style="fill:#f8f7f9;fill-opacity:1;fill-rule:nonzero;stroke:none"
             d="m 0,0 c -19.836,-12.691 -46.155,-28.329 -68.253,-36.463 -27.23,-10.022 -53.4,-22.919 -77.936,-38.407 6.353,-8.592 11.529,-15.444 16.17,-25.24 37.706,29.132 87.996,34.31 132.896,50.258 2.002,0.711 6.437,0.843 7.74,2.521 1.173,1.512 0.497,4.031 0.228,5.925 C 9.353,-30.928 2.605,-10.344 0,0" /></g><g
           transform="translate(1434.0107,2151.6113)"
           id="g36"><path
             id="path38"
             style="fill:#231f20;fill-opacity:1;fill-rule:nonzero;stroke:none"
             d="m 0,0 c -22.365,-14.279 -45.355,-27.822 -70.26,-37.18 -26.516,-9.964 -51.945,-22.626 -75.929,-37.69 -1.051,-0.66 -1.723,-2.304 -0.897,-3.42 5.982,-8.086 11.769,-16.16 16.17,-25.24 0.54,-1.114 2.404,-1.673 3.421,-0.897 23.664,18.046 52.129,26.987 80.46,34.777 14.229,3.912 28.531,7.589 42.585,12.106 3.225,1.037 6.418,2.339 9.68,3.245 2.252,0.625 4.796,0.663 6.859,1.869 4.193,2.451 2.808,7.569 2.101,11.542 -2.381,13.379 -7.151,26.253 -10.518,39.394 -0.797,3.115 -5.621,1.794 -4.821,-1.329 2.773,-10.824 6.301,-21.44 8.967,-32.294 0.578,-2.351 1.126,-4.716 1.551,-7.1 0.171,-0.963 0.594,-2.242 0.519,-3.211 -0.224,-2.904 -1.743,-3.127 -3.986,-3.609 -6.068,-1.304 -11.97,-3.825 -17.917,-5.633 -26.282,-7.992 -53.357,-13.594 -78.919,-23.836 -13.899,-5.569 -27.155,-12.507 -39.085,-21.604 l 3.42,-0.896 c -4.401,9.079 -10.188,17.153 -16.17,25.239 -0.299,-1.14 -0.598,-2.28 -0.897,-3.42 24.693,15.509 50.791,28.149 78.062,38.425 24.108,9.084 46.486,22.628 68.127,36.445 C 5.228,-2.591 2.723,1.738 0,0" /></g><g
           transform="translate(1523.541,1830.7661)"
           id="g40"><path
             id="path42"
             style="fill:#f8f7f9;fill-opacity:1;fill-rule:nonzero;stroke:none"
             d="m 0,0 c -18.254,-14.877 -39.734,-23.021 -60.757,-33.631 -25.903,-13.073 -53.301,-39.285 -75.903,-57.478 7.295,-7.809 13.222,-14.024 18.953,-23.224 34.124,33.256 83.491,44.155 126.27,65.138 1.908,0.936 6.299,1.573 7.401,3.39 0.992,1.636 0.032,4.061 -0.452,5.912 C 12.831,-29.654 3.771,-9.979 0,0" /></g><g
           transform="translate(1521.7725,1832.5337)"
           id="g44"><path
             id="path46"
             style="fill:#231f20;fill-opacity:1;fill-rule:nonzero;stroke:none"
             d="m 0,0 c -22.117,-17.747 -49.679,-25.593 -73.297,-40.775 -22.738,-14.617 -42.404,-33.398 -63.362,-50.334 -1.076,-0.869 -0.844,-2.633 0,-3.536 6.719,-7.189 13.266,-14.384 18.562,-22.717 0.871,-1.372 2.735,-1.653 3.926,-0.506 21.158,20.366 48.146,32.437 75.041,43.283 13.091,5.279 26.271,10.353 39.175,16.085 3.156,1.401 6.287,2.854 9.404,4.339 2.492,1.187 5.276,1.754 7.707,3.036 4.938,2.602 3.31,7.649 1.98,12.091 -3.897,13.018 -10.109,25.262 -14.957,37.931 -1.139,2.975 -5.975,1.684 -4.822,-1.329 4.072,-10.639 8.907,-20.972 12.831,-31.671 0.879,-2.398 1.708,-4.812 2.42,-7.266 0.365,-1.252 1.403,-4.104 0.51,-5.209 -0.671,-0.831 -3.13,-1.108 -4.138,-1.469 -5.846,-2.097 -11.41,-5.266 -17.118,-7.74 -24.893,-10.787 -50.798,-19.383 -74.752,-32.258 -13.347,-7.174 -25.881,-15.762 -36.816,-26.288 1.309,-0.168 2.617,-0.337 3.926,-0.505 -5.524,8.692 -12.332,16.227 -19.344,23.729 v -3.536 c 21.456,17.338 41.541,36.749 65.109,51.291 23.371,14.42 49.885,22.434 71.551,39.818 C 6.046,-1.522 2.487,1.996 0,0" /></g><g
           transform="translate(1395.126,2277.7261)"
           id="g48"><path
             id="path50"
             style="fill:#f8f7f9;fill-opacity:1;fill-rule:nonzero;stroke:none"
             d="m 0,0 c -17.943,-15.251 -41.911,-34.296 -62.71,-45.338 -25.628,-13.604 -49.819,-29.914 -72.041,-48.57 7.454,-7.657 13.507,-13.749 19.427,-22.828 33.431,33.953 82.562,45.867 124.901,67.728 1.887,0.975 6.264,1.703 7.328,3.542 0.959,1.656 -0.051,4.061 -0.573,5.902 C 13.44,-29.383 3.978,-9.898 0,0" /></g><g
           transform="translate(1393.3584,2279.4937)"
           id="g52"><path
             id="path54"
             style="fill:#231f20;fill-opacity:1;fill-rule:nonzero;stroke:none"
             d="m 0,0 c -20.502,-17.393 -41.712,-33.824 -65.4,-46.662 -24.652,-13.359 -47.843,-29.269 -69.351,-47.246 -1.047,-0.875 -0.877,-2.636 0,-3.535 6.864,-7.049 13.57,-14.101 19.036,-22.322 0.882,-1.326 2.736,-1.7 3.926,-0.506 20.51,20.573 46.871,33.151 73.241,44.464 13.266,5.691 26.647,11.125 39.719,17.257 3.125,1.466 6.232,2.973 9.312,4.532 2.468,1.249 5.228,1.875 7.643,3.194 4.909,2.679 3.212,7.684 1.789,12.106 -4.165,12.937 -10.628,25.049 -15.737,37.615 -1.196,2.941 -6.034,1.655 -4.821,-1.33 4.29,-10.552 9.337,-20.784 13.481,-31.399 0.929,-2.379 1.808,-4.775 2.57,-7.214 0.385,-1.232 1.511,-4.115 0.675,-5.221 -0.644,-0.85 -3.104,-1.19 -4.101,-1.566 -5.808,-2.196 -11.307,-5.489 -16.96,-8.079 -24.665,-11.298 -50.39,-20.428 -74.071,-33.793 -13.194,-7.446 -25.561,-16.284 -36.275,-27.031 1.309,-0.168 2.618,-0.337 3.927,-0.506 -5.704,8.579 -12.653,15.976 -19.819,23.334 v -3.535 c 22.159,18.52 46.129,34.477 71.535,48.179 22.898,12.349 43.443,28.954 63.216,45.728 C 5.993,-1.451 2.441,2.071 0,0" /></g><g
           transform="translate(1414.2109,2213.9829)"
           id="g56"><path
             id="path58"
             style="fill:#f8f7f9;fill-opacity:1;fill-rule:nonzero;stroke:none"
             d="m 0,0 c -18.519,-14.546 -43.205,-32.651 -64.415,-42.881 -26.134,-12.604 -50.938,-27.967 -73.864,-45.751 7.153,-7.939 12.966,-14.26 18.531,-23.561 34.718,32.636 84.273,42.643 127.424,62.852 1.924,0.901 6.326,1.46 7.46,3.256 1.022,1.618 0.106,4.06 -0.345,5.919 C 12.295,-29.88 3.592,-10.044 0,0" /></g><g
           transform="translate(1412.4434,2215.7505)"
           id="g60"><path
             id="path62"
             style="fill:#231f20;fill-opacity:1;fill-rule:nonzero;stroke:none"
             d="m 0,0 c -20.875,-16.365 -42.479,-31.971 -66.355,-43.681 -25.255,-12.385 -49.159,-27.372 -71.418,-44.56 -1.307,-1.009 -1.69,-2.613 -0.506,-3.926 6.589,-7.311 12.996,-14.628 18.14,-23.056 0.862,-1.41 2.736,-1.611 3.927,-0.506 21.522,19.982 48.735,31.546 75.819,41.904 13.185,5.043 26.454,9.879 39.455,15.387 3.18,1.348 6.334,2.748 9.48,4.17 2.512,1.134 5.315,1.646 7.761,2.896 4.961,2.535 3.394,7.617 2.147,12.075 -3.661,13.086 -9.652,25.44 -14.272,38.194 -1.087,3.002 -5.921,1.707 -4.821,-1.329 3.879,-10.711 8.527,-21.13 12.258,-31.897 0.836,-2.413 1.621,-4.842 2.289,-7.308 0.345,-1.27 1.308,-4.094 0.365,-5.197 -0.696,-0.813 -3.149,-1.035 -4.167,-1.383 -6.177,-2.11 -12.082,-5.325 -18.134,-7.796 -24.822,-10.133 -50.542,-18.257 -74.438,-30.551 -13.478,-6.934 -26.153,-15.3 -37.278,-25.629 1.309,-0.169 2.618,-0.337 3.927,-0.506 -5.367,8.791 -12.048,16.441 -18.923,24.067 -0.168,-1.308 -0.337,-2.618 -0.506,-3.926 22.756,17.571 47.21,32.748 73.049,45.355 23.68,11.554 45.07,27.466 65.737,43.668 C 6.065,-1.552 2.505,1.964 0,0" /></g><g
           transform="translate(1447.5474,2086.4199)"
           id="g64"><path
             id="path66"
             style="fill:#f8f7f9;fill-opacity:1;fill-rule:nonzero;stroke:none"
             d="m 0,0 c -19.975,-12.471 -46.464,-27.817 -68.651,-35.708 -27.339,-9.721 -53.649,-22.329 -78.355,-37.544 6.258,-8.663 11.359,-15.572 15.891,-25.417 38.025,28.714 88.369,33.336 133.443,48.789 2.009,0.689 6.445,0.771 7.766,2.435 1.19,1.498 0.542,4.025 0.293,5.923 C 9.011,-31.029 2.491,-10.373 0,0" /></g><g
           transform="translate(1446.2856,2088.5786)"
           id="g68"><path
             id="path70"
             style="fill:#231f20;fill-opacity:1;fill-rule:nonzero;stroke:none"
             d="m 0,0 c -22.524,-14.033 -45.659,-27.312 -70.668,-36.396 -26.623,-9.669 -52.191,-22.06 -76.338,-36.856 -1.068,-0.655 -1.703,-2.305 -0.897,-3.421 5.892,-8.152 11.59,-16.289 15.891,-25.417 0.533,-1.13 2.405,-1.654 3.421,-0.897 24.147,17.994 53.095,26.603 81.844,34.144 14.17,3.717 28.403,7.226 42.393,11.585 3.148,0.981 6.265,2.254 9.464,3.043 2.269,0.559 4.865,0.566 6.877,1.899 3.903,2.584 2.335,8.057 1.672,11.856 C 11.356,-27.249 6.852,-14.5 3.672,-1.494 2.909,1.63 -1.914,0.307 -1.149,-2.823 2.154,-16.334 6.94,-29.594 9.099,-43.365 c 0.395,-2.514 0.647,-4.317 -2.033,-5.411 -1.236,-0.505 -2.835,-0.497 -4.142,-0.852 -4.221,-1.145 -8.358,-2.757 -12.553,-4.015 -8.473,-2.541 -17.024,-4.806 -25.583,-7.034 -33.345,-8.68 -67.789,-17.043 -95.903,-37.992 1.14,-0.299 2.281,-0.598 3.421,-0.897 -4.302,9.128 -9.999,17.265 -15.891,25.417 -0.299,-1.141 -0.599,-2.281 -0.897,-3.421 24.863,15.237 51.099,27.581 78.483,37.555 24.205,8.817 46.732,22.122 68.522,35.698 C 5.249,-2.619 2.742,1.708 0,0" /></g><g
           transform="translate(1464.8364,2021.2183)"
           id="g72"><path
             id="path74"
             style="fill:#f8f7f9;fill-opacity:1;fill-rule:nonzero;stroke:none"
             d="m 0,0 c -19.649,-12.979 -45.736,-28.999 -67.714,-37.454 -27.08,-10.419 -53.06,-23.696 -77.368,-39.54 6.478,-8.499 11.754,-15.275 16.538,-25.001 37.276,29.679 87.485,35.589 132.148,52.191 1.991,0.74 6.424,0.936 7.702,2.633 1.151,1.528 0.439,4.038 0.141,5.928 C 9.803,-30.788 2.756,-10.305 0,0" /></g><g
           transform="translate(1463.5747,2023.377)"
           id="g76"><path
             id="path78"
             style="fill:#231f20;fill-opacity:1;fill-rule:nonzero;stroke:none"
             d="m 0,0 c -22.426,-14.783 -45.454,-28.636 -70.497,-38.52 -26.086,-10.295 -51.059,-23.213 -74.585,-38.474 -1.027,-0.667 -1.748,-2.304 -0.897,-3.42 6.099,-7.998 12.004,-15.987 16.538,-25.002 0.796,-1.584 2.754,-1.427 3.926,-0.506 23.623,18.566 52.543,27.782 81.011,36.022 13.91,4.026 27.884,7.866 41.599,12.531 3.09,1.051 6.141,2.389 9.286,3.251 2.257,0.619 4.84,0.7 6.832,2.059 3.884,2.651 2.202,8.082 1.441,11.868 -2.64,13.148 -7.469,25.776 -10.982,38.697 -0.842,3.101 -5.668,1.785 -4.821,-1.329 2.988,-10.993 6.767,-21.758 9.601,-32.795 0.591,-2.304 1.146,-4.618 1.586,-6.956 0.204,-1.078 0.7,-2.538 0.566,-3.62 -0.25,-2.026 -1.551,-2.223 -3.428,-2.647 -6.25,-1.413 -12.279,-4.052 -18.388,-6.007 -26.423,-8.458 -53.663,-14.523 -79.306,-25.295 -13.773,-5.785 -26.772,-13 -38.533,-22.243 1.309,-0.169 2.618,-0.338 3.926,-0.506 -4.533,9.015 -10.437,17.003 -16.536,25.001 -0.299,-1.14 -0.598,-2.28 -0.897,-3.42 24.222,15.712 49.901,28.747 76.77,39.287 24.244,9.511 46.638,23.42 68.311,37.707 C 5.199,-2.554 2.697,1.778 0,0" /></g><g
           transform="translate(1483.2939,1961.5391)"
           id="g80"><path
             id="path82"
             style="fill:#f8f7f9;fill-opacity:1;fill-rule:nonzero;stroke:none"
             d="m 0,0 c -18.479,-14.596 -43.116,-32.768 -64.299,-43.055 -26.1,-12.674 -50.862,-28.105 -73.741,-45.95 7.175,-7.92 13.005,-14.225 18.596,-23.511 34.629,32.73 84.157,42.87 127.253,63.196 1.921,0.906 6.322,1.477 7.451,3.276 1.018,1.621 0.095,4.061 -0.361,5.919 C 12.375,-29.847 3.619,-10.035 0,0" /></g><g
           transform="translate(1481.5259,1963.3066)"
           id="g84"><path
             id="path86"
             style="fill:#231f20;fill-opacity:1;fill-rule:nonzero;stroke:none"
             d="m 0,0 c -21.108,-16.64 -42.922,-32.288 -67.048,-44.263 -25.126,-12.469 -48.843,-27.544 -70.991,-44.742 -1.103,-0.856 -0.815,-2.637 0,-3.536 6.609,-7.292 13.037,-14.591 18.204,-23.004 0.863,-1.405 2.735,-1.619 3.926,-0.506 21.468,20.04 48.649,31.679 75.705,42.111 13.171,5.078 26.425,9.954 39.413,15.492 3.177,1.355 6.327,2.764 9.47,4.195 2.509,1.142 5.309,1.662 7.753,2.917 4.956,2.545 3.38,7.622 2.121,12.077 -3.697,13.077 -9.72,25.414 -14.374,38.156 -1.096,2.998 -5.929,1.703 -4.822,-1.329 3.908,-10.7 8.584,-21.106 12.344,-31.863 0.842,-2.412 1.635,-4.838 2.309,-7.303 0.347,-1.267 1.322,-4.095 0.386,-5.198 -0.691,-0.816 -3.146,-1.047 -4.163,-1.397 -6.17,-2.123 -12.068,-5.358 -18.111,-7.844 -24.795,-10.2 -50.495,-18.392 -74.357,-30.751 -13.458,-6.97 -26.112,-15.369 -37.209,-25.728 1.309,-0.169 2.617,-0.337 3.926,-0.506 -5.39,8.777 -12.09,16.409 -18.985,24.017 v -3.536 c 22.801,17.706 47.362,32.785 73.234,45.56 23.337,11.523 44.434,27.386 64.805,43.445 C 6.061,-1.544 2.501,1.972 0,0" /></g><g
           transform="translate(1502.6709,1897.3154)"
           id="g88"><path
             id="path90"
             style="fill:#f8f7f9;fill-opacity:1;fill-rule:nonzero;stroke:none"
             d="m 0,0 c -18.719,-14.288 -43.653,-32.05 -65.003,-41.984 -26.307,-12.241 -51.321,-27.259 -74.491,-44.723 7.042,-8.038 12.767,-14.439 18.202,-23.816 35.167,32.152 84.856,41.471 128.283,61.08 1.937,0.875 6.346,1.372 7.505,3.152 1.044,1.604 0.162,4.059 -0.264,5.924 C 11.879,-30.048 3.452,-10.094 0,0" /></g><g
           transform="translate(1501.4092,1899.4741)"
           id="g92"><path
             id="path94"
             style="fill:#231f20;fill-opacity:1;fill-rule:nonzero;stroke:none"
             d="m 0,0 c -20.995,-15.995 -42.708,-31.454 -66.646,-42.753 -25.717,-12.139 -50.103,-26.889 -72.849,-43.954 -1.337,-1.003 -1.658,-2.612 -0.505,-3.926 6.487,-7.402 12.785,-14.813 17.812,-23.31 0.852,-1.441 2.736,-1.581 3.926,-0.506 22.054,19.911 49.808,31.105 77.35,41.18 13.703,5.013 27.49,9.818 40.968,15.421 2.956,1.229 5.857,2.64 8.842,3.79 2.304,0.888 5.043,1.204 7.139,2.584 4.095,2.697 2.422,7.641 1.376,11.591 -3.479,13.136 -9.299,25.572 -13.741,38.389 -1.047,3.021 -5.879,1.723 -4.821,-1.329 3.73,-10.764 8.233,-21.246 11.814,-32.064 0.803,-2.425 1.557,-4.863 2.189,-7.339 0.988,-3.872 1.045,-4.987 -2.892,-6.203 -6.148,-1.898 -11.983,-4.957 -17.971,-7.326 -25.216,-9.974 -51.35,-17.774 -75.713,-29.818 -13.742,-6.794 -26.678,-15.051 -38.075,-25.341 1.308,-0.169 2.617,-0.337 3.926,-0.506 -5.244,8.865 -11.826,16.601 -18.594,24.322 -0.168,-1.309 -0.337,-2.617 -0.506,-3.926 22.748,17.067 47.134,31.803 72.849,43.954 23.936,11.31 45.647,26.756 66.645,42.753 C 5.05,-2.393 2.562,1.951 0,0" /></g><g
           transform="translate(1539.1719,1766.5054)"
           id="g96"><path
             id="path98"
             style="fill:#f8f7f9;fill-opacity:1;fill-rule:nonzero;stroke:none"
             d="m 0,0 c -17.626,-15.616 -38.753,-24.637 -59.321,-36.103 -25.344,-14.128 -51.639,-41.445 -73.473,-60.554 7.609,-7.502 13.787,-13.468 19.892,-22.424 32.727,34.633 81.603,47.555 123.483,70.281 1.867,1.013 6.229,1.831 7.255,3.691 0.924,1.675 -0.135,4.059 -0.695,5.889 C 14.04,-29.101 4.18,-9.814 0,0" /></g><g
           transform="translate(1537.4033,1768.2729)"
           id="g100"><path
             id="path102"
             style="fill:#231f20;fill-opacity:1;fill-rule:nonzero;stroke:none"
             d="m 0,0 c -21.375,-18.649 -48.56,-27.631 -71.541,-43.778 -22.121,-15.543 -41.004,-35.09 -61.252,-52.878 -1.01,-0.887 -0.915,-2.635 0,-3.536 7.006,-6.904 13.869,-13.812 19.501,-21.918 0.89,-1.28 2.74,-1.746 3.927,-0.506 20.275,21.193 46.647,34.358 73.034,46.301 13.392,6.061 26.901,11.877 40.055,18.449 3.085,1.541 6.098,3.234 9.188,4.762 2.266,1.121 4.979,1.635 7.037,3.133 4.296,3.128 1.835,8.559 0.367,12.621 C 15.744,-24.703 9.239,-12.839 3.927,-0.506 2.657,2.441 -1.651,-0.103 -0.391,-3.03 4.2,-13.688 9.613,-23.983 13.972,-34.745 c 0.859,-2.122 1.658,-4.261 2.377,-6.435 0.588,-1.781 1.269,-3.808 -0.016,-5.103 -0.811,-0.818 -2.783,-1.057 -3.842,-1.501 -5.818,-2.439 -11.336,-5.837 -17.03,-8.576 -24.441,-11.759 -49.968,-21.432 -73.319,-35.361 -12.783,-7.625 -24.737,-16.587 -35.043,-27.359 1.309,-0.169 2.618,-0.337 3.926,-0.506 -5.879,8.461 -12.965,15.719 -20.283,22.93 v -3.536 c 20.718,18.202 39.982,38.451 62.926,53.947 22.749,15.365 48.945,24.455 69.868,42.709 C 5.965,-1.416 2.417,2.108 0,0" /></g><g
           transform="translate(1558.0244,1713.3301)"
           id="g104"><path
             id="path106"
             style="fill:#f8f7f9;fill-opacity:1;fill-rule:nonzero;stroke:none"
             d="m 0,0 c -17.194,-16.09 -40.226,-36.258 -60.475,-48.279 -24.949,-14.813 -48.334,-32.259 -69.641,-51.954 7.812,-7.293 14.149,-13.088 20.496,-21.874 31.772,35.509 80.278,49.755 121.525,73.612 1.839,1.064 6.176,2 7.152,3.888 0.878,1.7 -0.245,4.054 -0.856,5.867 C 14.827,-28.708 4.445,-9.697 0,0" /></g><g
           transform="translate(1556.2568,1715.0977)"
           id="g108"><path
             id="path110"
             style="fill:#231f20;fill-opacity:1;fill-rule:nonzero;stroke:none"
             d="m 0,0 c -19.646,-18.349 -40.032,-35.8 -63.08,-49.753 -23.978,-14.518 -46.415,-31.502 -67.036,-50.48 -0.969,-0.892 -0.958,-2.642 0,-3.536 7.187,-6.706 14.259,-13.424 20.105,-21.368 0.897,-1.219 2.747,-1.807 3.926,-0.506 19.653,21.696 45.567,35.566 71.57,48.204 13.077,6.355 26.277,12.47 39.117,19.299 3.013,1.603 5.983,3.284 8.97,4.936 2.31,1.278 5.067,1.933 7.243,3.416 4.686,3.194 2.159,8.616 0.481,12.89 -4.915,12.521 -11.723,24.205 -17.37,36.392 -1.351,2.917 -5.662,0.38 -4.317,-2.524 4.788,-10.335 10.328,-20.31 14.964,-30.72 1.02,-2.289 1.971,-4.597 2.823,-6.954 0.739,-2.045 0.875,-4.201 -0.807,-5.619 -0.825,-0.697 -2.39,-0.916 -3.383,-1.385 -5.937,-2.808 -11.578,-6.406 -17.436,-9.403 -23.876,-12.213 -48.826,-22.521 -71.502,-36.967 -12.418,-7.911 -23.988,-17.1 -33.889,-28.029 1.309,-0.169 2.618,-0.338 3.927,-0.506 -6.112,8.304 -13.369,15.366 -20.886,22.38 v -3.536 c 21.253,19.561 44.406,36.661 69.135,51.563 22.283,13.429 42.03,30.971 60.98,48.67 C 5.892,-1.334 2.351,2.196 0,0" /></g><g
           transform="translate(1582.0732,1659.5024)"
           id="g112"><path
             id="path114"
             style="fill:#f8f7f9;fill-opacity:1;fill-rule:nonzero;stroke:none"
             d="m 0,0 c -17.298,-15.978 -40.46,-35.997 -60.786,-47.887 -25.045,-14.651 -48.542,-31.945 -69.975,-51.502 7.763,-7.343 14.063,-13.179 20.353,-22.007 32.001,35.304 80.599,49.236 121.999,72.826 1.846,1.051 6.189,1.96 7.177,3.841 0.888,1.694 -0.219,4.056 -0.818,5.873 C 14.641,-28.803 4.382,-9.726 0,0" /></g><g
           transform="translate(1580.3057,1661.2705)"
           id="g116"><path
             id="path118"
             style="fill:#231f20;fill-opacity:1;fill-rule:nonzero;stroke:none"
             d="m 0,0 c -19.766,-18.222 -40.265,-35.538 -63.402,-49.341 -24.073,-14.363 -46.616,-31.204 -67.359,-50.049 -0.98,-0.89 -0.947,-2.64 0,-3.535 7.144,-6.754 14.166,-13.518 19.962,-21.501 0.896,-1.234 2.746,-1.793 3.926,-0.506 19.792,21.568 45.801,35.268 71.884,47.737 13.117,6.27 26.355,12.3 39.239,19.046 3.025,1.583 6.004,3.247 9.003,4.878 2.316,1.26 5.084,1.895 7.266,3.369 4.688,3.17 2.195,8.61 0.544,12.894 -4.834,12.552 -11.57,24.279 -17.137,36.502 -1.332,2.924 -5.643,0.386 -4.318,-2.524 4.723,-10.366 10.191,-20.379 14.766,-30.816 1.062,-2.423 2.177,-4.9 2.934,-7.443 0.562,-1.893 1.245,-3.52 -0.252,-4.814 -0.914,-0.79 -2.743,-1.052 -3.863,-1.561 -5.834,-2.65 -11.36,-6.163 -17.089,-9.058 -23.943,-12.099 -48.963,-22.228 -71.786,-36.45 -12.716,-7.924 -24.578,-17.166 -34.726,-28.224 1.309,-0.169 2.617,-0.337 3.927,-0.506 -6.058,8.342 -13.275,15.451 -20.745,22.512 v -3.535 c 21.379,19.422 44.645,36.369 69.469,51.111 22.369,13.284 42.229,30.703 61.292,48.278 C 5.906,-1.35 2.363,2.179 0,0" /></g><g
           transform="translate(1341.3203,1382.0313)"
           id="g120"><path
             id="path122"
             style="fill:#231f20;fill-opacity:1;fill-rule:nonzero;stroke:none"
             d="m 0,0 c 45.613,83.282 45.979,93.075 117.095,159.059 71.116,65.983 86.08,79.637 168.594,155.959 84.937,78.563 51.65,80.292 176.613,151.974 110.234,63.233 148.347,105.669 220.983,159.259 70.16,51.763 149.024,137.249 213.611,203.477 64.587,66.228 50.686,-67.186 52.937,-181.679 C 952.085,533.555 967.324,604.481 916.125,459.3 864.927,314.119 829.02,315.463 780.51,242.095 731.999,168.728 689.441,167.052 631.139,94.052 572.835,21.051 534.46,-23.037 502.516,-90.487 c -31.945,-67.45 -39.636,-31.444 -85.458,-32.997 -45.822,-1.554 -77.001,25.58 -152.688,25.329 C 188.685,-98.407 150.61,-80.821 89.078,-65.442 27.545,-50.064 0,0 0,0" /></g><g
           transform="translate(2251.5371,2178.002)"
           id="g124"><path
             id="path126"
             style="fill:#f8f7f9;fill-opacity:1;fill-rule:nonzero;stroke:none"
             d="m 0,0 c -15.949,-17.325 -37.417,-39.15 -56.715,-52.646 -23.778,-16.627 -45.8,-35.765 -65.582,-56.991 8.332,-6.691 15.083,-11.999 22.067,-20.289 29.042,37.776 76.353,55.592 115.71,82.452 1.755,1.197 6.011,2.453 6.842,4.408 0.749,1.761 -0.546,4.025 -1.289,5.788 C 16.922,-27.525 5.154,-9.34 0,0" /></g><g
           transform="translate(2249.7695,2179.7695)"
           id="g128"><path
             id="path130"
             style="fill:#231f20;fill-opacity:1;fill-rule:nonzero;stroke:none"
             d="m 0,0 c -18.217,-19.75 -37.237,-38.724 -59.172,-54.346 -22.838,-16.265 -43.967,-34.824 -63.125,-55.291 -0.847,-0.905 -1.083,-2.666 0,-3.535 7.844,-6.296 15.497,-12.63 22.067,-20.289 0.804,-0.938 2.748,-1.011 3.535,0 17.991,23.107 42.751,38.887 67.755,53.432 12.567,7.31 25.275,14.391 37.571,22.156 2.887,1.823 5.733,3.704 8.578,5.59 2.221,1.472 4.861,2.337 6.97,3.946 4.448,3.394 1.877,8.259 -0.048,12.416 -5.71,12.331 -13.603,23.566 -20.205,35.415 -1.567,2.811 -5.887,0.293 -4.318,-2.524 5.545,-9.95 11.802,-19.49 17.209,-29.521 1.211,-2.246 2.394,-4.514 3.431,-6.847 0.739,-1.663 2.014,-3.559 0.513,-5.215 -0.768,-0.846 -2.545,-1.241 -3.547,-1.784 -5.681,-3.078 -10.954,-7.117 -16.478,-10.494 -22.885,-13.995 -47.006,-26.114 -68.603,-42.134 -12.048,-8.937 -23.13,-19.04 -32.363,-30.9 h 3.535 c -6.57,7.658 -14.222,13.992 -22.067,20.288 v -3.535 c 19.736,21.082 41.528,39.901 65.076,56.6 21.239,15.061 39.626,33.961 57.221,53.036 C 5.714,-1.173 2.188,2.372 0,0" /></g><g
           transform="translate(2261.4229,2110.1577)"
           id="g132"><path
             id="path134"
             style="fill:#f8f7f9;fill-opacity:1;fill-rule:nonzero;stroke:none"
             d="m 0,0 c -17.26,-16.019 -40.374,-36.092 -60.672,-48.031 -25.01,-14.71 -48.467,-32.059 -69.853,-51.667 7.781,-7.325 14.094,-13.146 20.405,-21.959 31.918,35.38 80.482,49.427 121.826,73.115 1.844,1.056 6.185,1.974 7.167,3.857 0.886,1.697 -0.227,4.056 -0.83,5.872 C 14.71,-28.768 4.405,-9.715 0,0" /></g><g
           transform="translate(2259.6553,2111.9258)"
           id="g136"><path
             id="path138"
             style="fill:#231f20;fill-opacity:1;fill-rule:nonzero;stroke:none"
             d="m 0,0 c -19.722,-18.269 -40.18,-35.634 -63.284,-49.493 -24.039,-14.418 -46.542,-31.312 -67.241,-50.206 -0.977,-0.891 -0.952,-2.64 0,-3.535 7.16,-6.736 14.2,-13.484 20.014,-21.453 0.897,-1.229 2.746,-1.798 3.926,-0.505 19.741,21.614 45.715,35.377 71.77,47.907 13.102,6.301 26.327,12.363 39.194,19.139 3.021,1.59 5.996,3.26 8.991,4.899 2.314,1.267 5.079,1.908 7.258,3.387 4.684,3.18 2.183,8.608 0.52,12.892 -4.863,12.541 -11.626,24.253 -17.221,36.462 -1.34,2.922 -5.651,0.384 -4.318,-2.524 4.746,-10.355 10.245,-20.352 14.838,-30.781 1.068,-2.423 2.189,-4.892 2.952,-7.435 0.569,-1.892 1.26,-3.519 -0.233,-4.818 -0.912,-0.793 -2.739,-1.059 -3.858,-1.57 -5.829,-2.663 -11.346,-6.19 -17.069,-9.098 -23.913,-12.156 -48.91,-22.344 -71.699,-36.62 -12.697,-7.954 -24.538,-17.222 -34.66,-28.305 1.308,-0.169 2.618,-0.337 3.927,-0.506 -6.078,8.329 -13.31,15.42 -20.797,22.464 v -3.535 c 21.334,19.473 44.557,36.476 69.347,51.276 22.338,13.337 42.157,30.802 61.178,48.422 C 5.901,-1.344 2.359,2.185 0,0" /></g><g
           transform="translate(2280.4766,2028.2603)"
           id="g140"><path
             id="path142"
             style="fill:#f8f7f9;fill-opacity:1;fill-rule:nonzero;stroke:none"
             d="m 0,0 c -20.851,-10.945 -48.411,-24.271 -71.126,-30.483 -27.987,-7.654 -55.166,-18.262 -80.938,-31.591 5.593,-9.106 10.164,-16.376 13.949,-26.532 40.062,25.795 90.611,26.647 136.713,38.691 2.054,0.538 6.485,0.288 7.926,1.849 1.298,1.405 0.841,3.973 0.735,5.884 C 6.67,-31.615 1.71,-10.529 0,0" /></g><g
           transform="translate(2279.2148,2030.4189)"
           id="g144"><path
             id="path146"
             style="fill:#231f20;fill-opacity:1;fill-rule:nonzero;stroke:none"
             d="m 0,0 c -23.521,-12.319 -47.575,-23.779 -73.205,-30.974 -27.267,-7.654 -53.681,-18.15 -78.859,-31.1 -1.182,-0.609 -1.576,-2.317 -0.897,-3.421 5.147,-8.374 10.171,-16.724 13.697,-25.935 0.55,-1.436 2.196,-2.431 3.672,-1.494 25.477,16.172 55.113,22.555 84.402,27.934 14.573,2.676 29.196,5.142 43.63,8.511 3.283,0.767 6.551,1.786 9.886,2.258 2.143,0.304 4.555,0.274 6.387,1.585 3.665,2.622 2.409,8.15 1.979,11.993 -1.476,13.186 -4.842,26.078 -7.02,39.149 -0.527,3.167 -5.346,1.824 -4.821,-1.329 2.301,-13.819 6.173,-27.51 7.17,-41.518 0.15,-2.114 0.503,-3.592 -1.5,-4.602 -1.132,-0.572 -3.172,-0.321 -4.455,-0.55 -4.097,-0.731 -8.144,-1.997 -12.21,-2.908 -8.728,-1.955 -17.52,-3.61 -26.319,-5.215 -34.31,-6.259 -69.68,-11.965 -99.652,-30.99 1.224,-0.498 2.448,-0.997 3.673,-1.495 -3.687,9.63 -8.818,18.371 -14.202,27.13 -0.298,-1.14 -0.597,-2.28 -0.897,-3.421 25.937,13.341 53.032,23.644 81.086,31.547 24.776,6.98 48.255,18.626 70.978,30.528 C 5.375,-2.824 2.851,1.493 0,0" /></g><g
           transform="translate(2272.4414,1936.1558)"
           id="g148"><path
             id="path150"
             style="fill:#f8f7f9;fill-opacity:1;fill-rule:nonzero;stroke:none"
             d="m 0,0 c -23.306,-3.37 -53.732,-6.749 -77.219,-5.035 -28.937,2.112 -58.097,1.169 -86.839,-2.808 2.239,-10.449 4.125,-18.827 4.309,-29.665 46.369,10.969 94.311,-5.076 141.791,-9.085 2.116,-0.179 6.211,-1.89 8.09,-0.9 1.692,0.893 2.117,3.467 2.653,5.304 C -4.248,-32.03 -1.896,-10.498 0,0" /></g><g
           transform="translate(2271.7773,1938.5664)"
           id="g152"><path
             id="path154"
             style="fill:#231f20;fill-opacity:1;fill-rule:nonzero;stroke:none"
             d="m 0,0 c -25.583,-3.675 -51.651,-6.643 -77.519,-4.877 -28.902,1.973 -57.838,0.937 -86.54,-2.966 -1.39,-0.189 -1.998,-1.902 -1.746,-3.075 2.064,-9.616 3.959,-19.137 4.22,-29 0.044,-1.674 1.558,-2.779 3.164,-2.411 39.546,9.049 79.621,-1.001 118.884,-6.573 8.788,-1.248 17.618,-2.145 26.361,-3.53 6.418,-1.017 8.019,3.128 9.436,8.628 3.436,13.332 4.427,27.197 6.815,40.729 0.556,3.146 -4.262,4.497 -4.821,1.329 -2.297,-13.011 -3.347,-26.286 -6.422,-39.154 -0.243,-1.019 -0.516,-2.026 -0.794,-3.036 -0.762,-2.766 -1.162,-3.632 -4.186,-3.398 -3.207,0.249 -6.53,1.026 -9.771,1.359 -9.835,1.009 -19.614,2.481 -29.375,4.035 -35.517,5.656 -71.748,12.604 -107.456,4.432 1.055,-0.803 2.109,-1.607 3.165,-2.41 -0.272,10.31 -2.241,20.275 -4.398,30.329 -0.582,-1.025 -1.164,-2.051 -1.746,-3.076 29.479,4.009 58.846,4.295 88.497,2.57 25.194,-1.466 50.663,1.698 75.561,5.274 C 4.502,-4.366 3.152,0.453 0,0" /></g><g
           transform="translate(2105.0488,1639.4116)"
           id="g156"><path
             id="path158"
             style="fill:#f8f7f9;fill-opacity:1;fill-rule:nonzero;stroke:none"
             d="m 0,0 c -22.599,6.622 -51.677,16.196 -72.325,27.517 -25.443,13.949 -52.357,25.212 -80.151,33.541 -2.306,-10.435 -4.073,-18.839 -8.411,-28.772 46.734,-9.297 83.668,-43.818 125.187,-67.199 1.85,-1.043 4.862,-4.301 6.983,-4.181 1.91,0.109 3.366,2.273 4.618,3.72 C -17.178,-27.367 -6.089,-8.759 0,0" /></g><g
           transform="translate(2105.7129,1641.8223)"
           id="g160"><path
             id="path162"
             style="fill:#231f20;fill-opacity:1;fill-rule:nonzero;stroke:none"
             d="m 0,0 c -25.131,7.389 -50.247,15.649 -73.354,28.151 -25.183,13.627 -51.713,24.626 -79.121,32.907 -1.244,0.376 -2.789,-0.45 -3.075,-1.746 -2.118,-9.593 -4.3,-19.104 -8.159,-28.175 -0.582,-1.367 -0.256,-3.313 1.494,-3.672 29.143,-5.99 54.583,-21.619 79.056,-37.861 12.069,-8.011 24.013,-16.222 36.402,-23.737 3.009,-1.825 6.173,-3.449 9.13,-5.349 2.143,-1.377 4.082,-3.639 6.624,-4.294 4.658,-1.201 7.754,3.785 10.188,6.908 8.2,10.524 14.75,22.225 22.309,33.195 1.83,2.656 -2.501,5.159 -4.317,2.524 -6.34,-9.2 -12.028,-18.834 -18.461,-27.973 -1.474,-2.093 -2.985,-4.157 -4.607,-6.138 -0.669,-0.818 -1.404,-2.048 -2.255,-2.66 -2.083,-1.497 -3.183,-0.02 -4.881,1.253 -4.983,3.738 -10.785,6.542 -16.074,9.851 -23.288,14.569 -45.295,31.305 -69.807,43.853 -13.317,6.816 -27.3,12.233 -41.978,15.249 l 1.494,-3.672 c 4.041,9.497 6.444,19.317 8.663,29.368 -1.025,-0.582 -2.05,-1.164 -3.075,-1.746 C -125.61,47.718 -98.87,36.093 -72.922,22.227 -50.434,10.211 -25.708,2.347 -1.329,-4.822 1.765,-5.731 3.086,-0.907 0,0" /></g><g
           transform="translate(2151.1953,1686.0688)"
           id="g164"><path
             id="path166"
             style="fill:#f8f7f9;fill-opacity:1;fill-rule:nonzero;stroke:none"
             d="m 0,0 c -22.599,6.622 -51.677,16.196 -72.325,27.517 -25.443,13.949 -52.357,25.212 -80.151,33.541 -2.306,-10.434 -4.073,-18.839 -8.411,-28.772 46.734,-9.297 83.668,-43.818 125.186,-67.199 1.851,-1.043 4.863,-4.301 6.984,-4.181 1.91,0.109 3.366,2.273 4.617,3.72 C -17.178,-27.367 -6.089,-8.759 0,0" /></g><g
           transform="translate(2151.8594,1688.4795)"
           id="g168"><path
             id="path170"
             style="fill:#231f20;fill-opacity:1;fill-rule:nonzero;stroke:none"
             d="m 0,0 c -25.131,7.389 -50.248,15.649 -73.354,28.151 -25.183,13.628 -51.713,24.626 -79.121,32.907 -1.245,0.376 -2.789,-0.449 -3.075,-1.746 -2.118,-9.593 -4.3,-19.104 -8.159,-28.175 -0.582,-1.367 -0.256,-3.313 1.493,-3.672 29.144,-5.99 54.583,-21.619 79.057,-37.861 12.069,-8.011 24.013,-16.221 36.402,-23.737 3.009,-1.825 6.173,-3.449 9.13,-5.349 2.143,-1.377 4.082,-3.639 6.624,-4.294 4.658,-1.201 7.753,3.785 10.187,6.908 8.201,10.524 14.751,22.225 22.31,33.195 1.83,2.656 -2.501,5.159 -4.317,2.524 -6.34,-9.2 -12.028,-18.834 -18.461,-27.973 -1.474,-2.092 -2.986,-4.157 -4.607,-6.138 -0.669,-0.818 -1.404,-2.048 -2.255,-2.66 -2.084,-1.497 -3.183,-0.02 -4.881,1.253 -4.983,3.738 -10.786,6.542 -16.074,9.851 -23.288,14.569 -45.295,31.305 -69.808,43.853 -13.316,6.816 -27.3,12.233 -41.977,15.249 0.498,-1.224 0.995,-2.448 1.493,-3.672 4.042,9.497 6.445,19.317 8.664,29.368 -1.025,-0.582 -2.05,-1.164 -3.075,-1.746 C -125.61,47.719 -98.87,36.093 -72.922,22.228 -50.434,10.211 -25.708,2.347 -1.329,-4.821 1.765,-5.731 3.085,-0.907 0,0" /></g><g
           transform="translate(2190.6523,1741.769)"
           id="g172"><path
             id="path174"
             style="fill:#f8f7f9;fill-opacity:1;fill-rule:nonzero;stroke:none"
             d="m 0,0 c -22.598,6.622 -51.676,16.196 -72.325,27.517 -25.442,13.949 -52.356,25.212 -80.15,33.541 -2.306,-10.435 -4.074,-18.839 -8.411,-28.772 46.733,-9.297 83.668,-43.818 125.186,-67.199 1.85,-1.043 4.863,-4.301 6.983,-4.181 1.911,0.109 3.367,2.273 4.618,3.72 C -17.178,-27.367 -6.089,-8.759 0,0" /></g><g
           transform="translate(2191.3174,1744.1797)"
           id="g176"><path
             id="path178"
             style="fill:#231f20;fill-opacity:1;fill-rule:nonzero;stroke:none"
             d="m 0,0 c -25.131,7.389 -50.248,15.649 -73.354,28.151 -25.184,13.628 -51.713,24.626 -79.122,32.907 -1.244,0.376 -2.789,-0.45 -3.075,-1.746 -2.118,-9.593 -4.3,-19.104 -8.159,-28.175 -0.582,-1.367 -0.256,-3.313 1.494,-3.672 29.144,-5.99 54.583,-21.619 79.056,-37.861 12.069,-8.011 24.014,-16.222 36.402,-23.737 3.01,-1.825 6.173,-3.449 9.131,-5.349 2.142,-1.377 4.081,-3.639 6.623,-4.294 4.658,-1.201 7.754,3.785 10.188,6.908 8.2,10.524 14.75,22.225 22.31,33.195 1.83,2.656 -2.502,5.159 -4.317,2.524 -6.341,-9.2 -12.029,-18.834 -18.462,-27.973 -1.473,-2.092 -2.985,-4.157 -4.607,-6.138 -0.669,-0.818 -1.404,-2.048 -2.255,-2.66 -2.083,-1.497 -3.182,-0.02 -4.88,1.253 -4.984,3.738 -10.786,6.542 -16.074,9.851 -23.289,14.569 -45.296,31.305 -69.808,43.853 -13.316,6.816 -27.3,12.233 -41.978,15.249 l 1.494,-3.672 c 4.041,9.497 6.445,19.317 8.664,29.368 -1.026,-0.582 -2.05,-1.164 -3.076,-1.746 28.194,-8.518 54.934,-20.143 80.883,-34.009 C -50.435,10.211 -25.708,2.347 -1.329,-4.822 1.764,-5.731 3.085,-0.907 0,0" /></g><g
           transform="translate(2227.9482,1809.7334)"
           id="g180"><path
             id="path182"
             style="fill:#f8f7f9;fill-opacity:1;fill-rule:nonzero;stroke:none"
             d="m 0,0 c -23.37,2.897 -53.61,7.664 -75.813,15.513 -27.355,9.67 -55.732,16.452 -84.504,20.197 -0.596,-10.669 -0.988,-19.248 -3.669,-29.75 47.621,-1.651 89.632,-29.774 134.373,-46.166 1.995,-0.731 5.492,-3.461 7.566,-3.001 1.867,0.415 2.956,2.785 3.958,4.415 C -12.547,-29.775 -4.6,-9.625 0,0" /></g><g
           transform="translate(2227.9482,1812.2334)"
           id="g184"><path
             id="path186"
             style="fill:#231f20;fill-opacity:1;fill-rule:nonzero;stroke:none"
             d="m 0,0 c -25.638,3.202 -51.563,7.21 -76.04,15.737 -27.362,9.532 -55.557,16.168 -84.277,19.973 -1.392,0.185 -2.433,-1.297 -2.5,-2.5 -0.546,-9.819 -1.229,-19.502 -3.579,-29.085 -0.399,-1.625 0.762,-3.097 2.41,-3.165 30.437,-1.26 58.702,-13.199 86.065,-25.616 13.122,-5.955 26.189,-12.055 39.585,-17.379 3.158,-1.255 6.431,-2.312 9.471,-3.824 2.103,-1.047 4.333,-2.618 6.818,-2.348 4.129,0.448 6.239,5.699 7.955,8.878 6.196,11.475 10.683,23.792 16.25,35.567 1.368,2.893 -2.941,5.434 -4.317,2.524 -5.798,-12.263 -10.346,-25.218 -17.056,-37.035 -0.586,-1.033 -1.393,-3.205 -2.321,-3.896 -2.226,-1.66 -3.995,0.295 -5.877,1.201 -3.593,1.73 -7.499,2.907 -11.199,4.397 -8.663,3.49 -17.188,7.316 -25.69,11.18 -31.819,14.461 -64.142,29.88 -99.684,31.351 0.803,-1.055 1.607,-2.11 2.411,-3.165 2.457,10.017 3.186,20.149 3.758,30.415 -0.833,-0.833 -1.666,-1.667 -2.5,-2.5 29.473,-3.904 57.869,-11.362 85.993,-20.849 C -50.396,1.789 -24.977,-1.88 0,-5 3.185,-5.398 3.155,-0.394 0,0" /></g><g
           transform="translate(2253.5742,1876.1436)"
           id="g188"><path
             id="path190"
             style="fill:#f8f7f9;fill-opacity:1;fill-rule:nonzero;stroke:none"
             d="m 0,0 c -23.477,-1.829 -54.06,-3.198 -77.382,0.058 -28.737,4.011 -57.895,4.989 -86.837,2.912 1.547,-10.574 2.878,-19.058 2.348,-29.884 46.99,7.893 93.772,-11.272 140.886,-18.396 2.1,-0.318 6.073,-2.295 8.012,-1.43 1.748,0.78 2.341,3.32 2.997,5.117 C -6.347,-31.681 -2.583,-10.35 0,0" /></g><g
           transform="translate(2253.5742,1878.6436)"
           id="g192"><path
             id="path194"
             style="fill:#231f20;fill-opacity:1;fill-rule:nonzero;stroke:none"
             d="m 0,0 c -25.404,-1.956 -51.37,-3.384 -76.718,-0.031 -29.066,3.844 -58.234,5.032 -87.501,3.001 -1.767,-0.123 -2.655,-1.491 -2.41,-3.165 1.427,-9.736 2.648,-19.358 2.258,-29.219 -0.07,-1.772 1.645,-2.654 3.164,-2.411 39.799,6.39 78.995,-6.202 117.552,-14.336 8.897,-1.877 17.855,-3.443 26.711,-5.39 6.042,-1.328 7.964,2.504 9.71,7.698 4.442,13.213 6.331,27.179 9.645,40.688 0.767,3.125 -4.054,4.458 -4.821,1.33 -3.149,-12.832 -5.069,-26.009 -8.985,-38.646 -0.408,-1.318 -0.75,-2.901 -1.387,-4.125 -1.183,-2.27 -1.641,-2.223 -4.114,-1.762 -4.184,0.78 -8.382,1.735 -12.598,2.498 -8.904,1.611 -17.744,3.554 -26.566,5.565 -34.944,7.967 -70.445,17.087 -106.476,11.302 1.056,-0.804 2.11,-1.607 3.165,-2.411 0.407,10.306 -0.946,20.379 -2.437,30.548 -0.803,-1.054 -1.607,-2.109 -2.411,-3.164 29.599,2.055 58.939,0.658 88.335,-3.114 C -50.806,-8.362 -25.124,-6.934 0,-5 3.188,-4.754 3.215,0.248 0,0" /></g><g
           transform="translate(1951.9697,1479.3477)"
           id="g196"><path
             id="path198"
             style="fill:#f8f7f9;fill-opacity:1;fill-rule:nonzero;stroke:none"
             d="m 0,0 c -21.392,9.845 -48.764,23.555 -67.542,37.764 -23.138,17.508 -48.122,32.573 -74.406,44.864 -3.803,-9.987 -6.776,-18.044 -12.515,-27.238 44.88,-16.01 76.389,-55.544 114.056,-84.727 1.679,-1.302 4.184,-4.964 6.3,-5.154 1.906,-0.171 3.662,1.758 5.111,3.008 C -20.982,-24.57 -7.3,-7.778 0,0" /></g><g
           transform="translate(1953.2324,1481.5059)"
           id="g200"><path
             id="path202"
             style="fill:#231f20;fill-opacity:1;fill-rule:nonzero;stroke:none"
             d="m 0,0 c -23.651,10.911 -47.358,22.636 -68.267,38.31 -23.004,17.245 -47.666,32.083 -73.682,44.318 -1.56,0.734 -3.064,0.105 -3.672,-1.494 -3.499,-9.196 -7.112,-18.222 -12.263,-26.641 -0.9,-1.471 0.024,-3.138 1.494,-3.672 27.593,-10.036 50.284,-29.035 71.847,-48.405 10.736,-9.644 21.314,-19.474 32.419,-28.698 2.653,-2.204 5.411,-4.285 8.06,-6.493 2.043,-1.703 3.7,-4.124 6.029,-5.455 4.385,-2.507 7.988,1.34 11.06,4.182 9.977,9.228 18.238,20.194 27.481,30.122 2.19,2.353 -1.338,5.897 -3.536,3.535 -7.762,-8.338 -14.913,-17.225 -22.794,-25.457 -1.766,-1.844 -3.569,-3.653 -5.459,-5.371 -0.723,-0.656 -2.239,-2.51 -3.144,-2.646 -1.755,-0.266 -3.217,1.995 -4.285,3.016 -4.776,4.564 -10.347,8.433 -15.368,12.745 -20.341,17.468 -39.309,36.624 -61.15,52.283 -12.332,8.84 -25.551,16.269 -39.831,21.463 l 1.495,-3.672 c 5.377,8.788 9.115,18.238 12.766,27.835 -1.224,-0.498 -2.448,-0.996 -3.673,-1.494 C -118.456,66.075 -93.794,51.237 -70.79,33.993 -49.882,18.318 -26.175,6.594 -2.524,-4.316 0.378,-5.656 2.921,-1.348 0,0" /></g><g
           transform="translate(2004.1504,1531.2637)"
           id="g204"><path
             id="path206"
             style="fill:#f8f7f9;fill-opacity:1;fill-rule:nonzero;stroke:none"
             d="m 0,0 c -21.937,8.563 -50.071,20.631 -69.656,33.706 -24.132,16.11 -49.964,29.671 -76.928,40.387 -3.206,-10.194 -5.697,-18.412 -10.883,-27.93 45.747,-13.329 79.537,-50.932 118.863,-77.837 1.753,-1.2 4.471,-4.708 6.594,-4.772 1.912,-0.059 3.552,1.97 4.924,3.303 C -19.494,-25.768 -6.828,-8.196 0,0" /></g><g
           transform="translate(2004.8145,1533.6743)"
           id="g208"><path
             id="path210"
             style="fill:#231f20;fill-opacity:1;fill-rule:nonzero;stroke:none"
             d="m 0,0 c -24.702,9.669 -49.111,20.336 -71.327,34.956 -23.684,15.586 -48.939,28.611 -75.257,39.137 -1.286,0.515 -2.707,-0.573 -3.075,-1.746 -2.949,-9.385 -5.987,-18.623 -10.631,-27.333 -0.768,-1.44 -0.095,-3.199 1.494,-3.672 28.474,-8.49 52.482,-26.343 75.407,-44.637 10.942,-8.73 21.764,-17.62 33.026,-25.939 2.807,-2.075 5.686,-4.048 8.51,-6.099 2.315,-1.681 4.325,-4.303 6.976,-5.461 4.486,-1.96 7.952,2.412 10.706,5.322 9.216,9.742 16.746,20.972 25.275,31.293 2.034,2.463 -1.484,6.02 -3.537,3.536 -7.255,-8.782 -13.868,-18.078 -21.249,-26.76 -1.541,-1.812 -3.111,-3.6 -4.767,-5.309 -0.726,-0.749 -1.514,-1.82 -2.384,-2.382 -2.283,-1.473 -3.198,-0.23 -4.964,1.317 -4.731,4.146 -10.251,7.486 -15.28,11.276 -21.909,16.509 -42.344,35.07 -65.621,49.713 -12.745,8.018 -26.317,14.642 -40.769,18.951 l 1.494,-3.672 c 4.849,9.091 8.056,18.728 11.135,28.527 -1.024,-0.582 -2.05,-1.164 -3.075,-1.746 C -120.85,58.448 -95.296,44.709 -70.952,28.72 -49.427,14.583 -25.229,4.533 -1.329,-4.822 1.669,-5.995 2.968,-1.162 0,0" /></g><g
           transform="translate(2050.624,1581.2871)"
           id="g212"><path
             id="path214"
             style="fill:#f8f7f9;fill-opacity:1;fill-rule:nonzero;stroke:none"
             d="m 0,0 c -21.773,8.971 -49.678,21.561 -69.016,34.999 -23.828,16.557 -49.402,30.598 -76.161,41.814 -3.395,-10.132 -6.04,-18.302 -11.402,-27.722 45.49,-14.179 78.574,-52.406 117.392,-80.04 1.731,-1.232 4.382,-4.79 6.503,-4.895 1.912,-0.094 3.588,1.905 4.985,3.212 C -19.971,-25.4 -6.979,-8.067 0,0" /></g><g
           transform="translate(2051.2881,1583.6978)"
           id="g216"><path
             id="path218"
             style="fill:#231f20;fill-opacity:1;fill-rule:nonzero;stroke:none"
             d="m 0,0 c -24.513,10.126 -48.723,21.262 -70.657,36.291 -23.395,16.028 -48.399,29.506 -74.52,40.522 -1.292,0.545 -2.692,-0.601 -3.075,-1.746 -3.124,-9.329 -6.344,-18.504 -11.149,-27.125 -0.81,-1.452 -0.059,-3.178 1.494,-3.672 27.982,-8.913 51.433,-26.924 73.772,-45.412 10.872,-8.998 21.607,-18.17 32.794,-26.781 2.737,-2.106 5.512,-4.157 8.292,-6.204 2.365,-1.741 4.413,-4.378 7.014,-5.766 4.477,-2.39 7.921,1.516 10.9,4.505 9.595,9.623 17.405,20.915 26.239,31.209 2.084,2.43 -1.436,5.983 -3.536,3.536 -7.419,-8.645 -14.204,-17.816 -21.745,-26.359 -1.69,-1.915 -3.417,-3.795 -5.237,-5.588 -0.659,-0.649 -1.68,-2.084 -2.524,-2.407 -2.206,-0.843 -3.53,1.1 -4.911,2.333 -4.927,4.399 -10.682,8.009 -15.871,12.112 -21.028,16.628 -40.748,35.027 -63.202,49.785 -12.669,8.327 -26.188,15.25 -40.656,19.858 l 1.494,-3.673 c 5.017,8.999 8.393,18.581 11.653,28.32 -1.025,-0.582 -2.049,-1.164 -3.075,-1.746 26.852,-11.325 52.151,-25.554 76.187,-41.991 C -49.057,15.461 -25.053,4.979 -1.329,-4.822 1.643,-6.049 2.938,-1.213 0,0" /></g><g
           transform="translate(1862.6797,1377.0459)"
           id="g220"><path
             id="path222"
             style="fill:#f8f7f9;fill-opacity:1;fill-rule:nonzero;stroke:none"
             d="m 0,0 c -21.392,9.845 -48.765,23.554 -67.543,37.764 -23.137,17.507 -48.122,32.573 -74.405,44.863 -3.803,-9.986 -6.777,-18.043 -12.515,-27.238 44.879,-16.009 76.389,-55.544 114.055,-84.727 1.679,-1.301 4.184,-4.964 6.301,-5.153 1.905,-0.171 3.661,1.758 5.11,3.007 C -20.983,-24.571 -7.301,-7.778 0,0" /></g><g
           transform="translate(1863.9414,1379.2041)"
           id="g224"><path
             id="path226"
             style="fill:#231f20;fill-opacity:1;fill-rule:nonzero;stroke:none"
             d="m 0,0 c -23.65,10.911 -47.358,22.636 -68.267,38.31 -23.004,17.245 -47.665,32.083 -73.681,44.318 -1.561,0.733 -3.065,0.104 -3.673,-1.494 -3.499,-9.196 -7.111,-18.223 -12.263,-26.642 -0.899,-1.471 0.024,-3.137 1.494,-3.672 27.594,-10.036 50.284,-29.034 71.847,-48.404 10.736,-9.645 21.314,-19.475 32.419,-28.698 2.654,-2.204 5.412,-4.285 8.061,-6.493 2.042,-1.704 3.699,-4.124 6.028,-5.456 4.385,-2.507 7.988,1.341 11.06,4.182 9.977,9.228 18.238,20.195 27.481,30.122 2.19,2.354 -1.337,5.898 -3.535,3.536 -7.763,-8.338 -14.914,-17.226 -22.794,-25.458 -1.767,-1.844 -3.569,-3.653 -5.46,-5.371 -0.723,-0.656 -2.239,-2.509 -3.144,-2.646 -1.755,-0.266 -3.217,1.996 -4.285,3.016 -4.776,4.565 -10.346,8.433 -15.367,12.746 -20.342,17.468 -39.31,36.624 -61.151,52.282 -12.332,8.841 -25.551,16.27 -39.831,21.464 0.499,-1.225 0.997,-2.449 1.495,-3.673 5.377,8.789 9.115,18.238 12.766,27.836 -1.223,-0.498 -2.448,-0.996 -3.672,-1.494 C -118.456,66.075 -93.794,51.237 -70.79,33.992 -49.882,18.318 -26.174,6.594 -2.523,-4.317 0.379,-5.656 2.922,-1.348 0,0" /></g><g
           transform="translate(1906.1963,1434.0205)"
           id="g228"><path
             id="path230"
             style="fill:#f8f7f9;fill-opacity:1;fill-rule:nonzero;stroke:none"
             d="m 0,0 c -21.937,8.563 -50.071,20.631 -69.656,33.705 -24.132,16.11 -49.964,29.672 -76.928,40.388 -3.206,-10.194 -5.697,-18.412 -10.883,-27.93 45.747,-13.329 79.538,-50.933 118.863,-77.838 1.754,-1.199 4.471,-4.708 6.594,-4.772 1.913,-0.058 3.552,1.971 4.924,3.304 C -19.494,-25.769 -6.828,-8.196 0,0" /></g><g
           transform="translate(1906.8604,1436.4307)"
           id="g232"><path
             id="path234"
             style="fill:#231f20;fill-opacity:1;fill-rule:nonzero;stroke:none"
             d="m 0,0 c -24.702,9.669 -49.11,20.336 -71.326,34.956 -23.685,15.586 -48.94,28.612 -75.257,39.138 -1.287,0.514 -2.707,-0.573 -3.076,-1.746 -2.948,-9.386 -5.986,-18.624 -10.631,-27.333 -0.768,-1.441 -0.095,-3.2 1.494,-3.673 28.474,-8.489 52.483,-26.343 75.407,-44.637 10.942,-8.73 21.764,-17.619 33.026,-25.938 2.808,-2.076 5.686,-4.048 8.51,-6.1 2.316,-1.681 4.325,-4.303 6.976,-5.461 4.486,-1.96 7.953,2.412 10.706,5.322 9.216,9.742 16.746,20.972 25.275,31.293 2.034,2.463 -1.484,6.02 -3.536,3.536 -7.256,-8.782 -13.869,-18.078 -21.25,-26.759 -1.541,-1.813 -3.111,-3.601 -4.766,-5.31 -0.726,-0.749 -1.514,-1.82 -2.385,-2.382 -2.282,-1.472 -3.197,-0.23 -4.964,1.318 -4.731,4.145 -10.25,7.485 -15.279,11.275 -21.91,16.509 -42.345,35.07 -65.621,49.714 -12.746,8.017 -26.318,14.641 -40.77,18.95 0.498,-1.224 0.996,-2.448 1.494,-3.672 4.849,9.091 8.057,18.728 11.136,28.528 l -3.076,-1.747 C -120.85,58.448 -95.296,44.71 -70.951,28.72 -49.427,14.583 -25.228,4.533 -1.329,-4.821 1.669,-5.995 2.968,-1.162 0,0" /></g><g
           transform="translate(2132.9902,1094.71)"
           id="g236"><path
             id="path238"
             style="fill:#231f20;fill-opacity:1;fill-rule:nonzero;stroke:none"
             d="m 0,0 c 158.381,52.515 170.131,43.95 233.727,67.336 63.595,23.386 149.779,54.09 160.561,27.44 24.32,-60.107 30.486,-63.576 37.593,-92.465 7.106,-28.889 10.116,-29.252 3.44,-71.921 -4.615,-29.504 -13.718,-48.413 -18.706,-68.93 -10.005,-41.147 -13.533,-54.064 -32.027,-75.02 0,0 -15.601,11.589 -66.064,29.049 -57.341,19.84 14.916,-6.457 -98.558,29.934 C 26.982,-92.688 51.703,-89.843 24.405,-68.949 0.519,-50.666 0,0 0,0" /></g></g></g></g></svg>