<svg xmlns="http://www.w3.org/2000/svg" xmlns:xlink="http://www.w3.org/1999/xlink" viewBox="0 0 753.5 124.31"><defs><style>.cls-1{fill:#2d2d2d;}.cls-2{fill:url(#linear-gradient);}.cls-3{fill:url(#linear-gradient-2);}.cls-4{fill:url(#New_Gradient_Swatch);}</style><linearGradient id="linear-gradient" x1="40.28" y1="45.17" x2="70.47" y2="143.92" gradientUnits="userSpaceOnUse"><stop offset="0.39" stop-color="#ff9373"/><stop offset="0.51" stop-color="#fe8f73"/><stop offset="0.62" stop-color="#fb8373"/><stop offset="0.73" stop-color="#f77073"/><stop offset="0.83" stop-color="#f15472"/><stop offset="0.94" stop-color="#e93172"/><stop offset="1" stop-color="#e41a72"/></linearGradient><linearGradient id="linear-gradient-2" x1="138.69" y1="62.19" x2="11.99" y2="62.19" gradientUnits="userSpaceOnUse"><stop offset="0.09" stop-color="#ff9373"/><stop offset="0.15" stop-color="#fd8a73"/><stop offset="0.55" stop-color="#f04e72"/><stop offset="0.85" stop-color="#e72872"/><stop offset="1" stop-color="#e41a72"/></linearGradient><linearGradient id="New_Gradient_Swatch" x1="139.06" y1="62.15" x2="88.07" y2="62.15" gradientUnits="userSpaceOnUse"><stop offset="0" stop-color="#ff9373"/><stop offset="1" stop-color="#e41a72"/></linearGradient></defs><title>Asset 1</title><g id="Layer_2" data-name="Layer 2"><g id="Layer_1-2" data-name="Layer 1"><path class="cls-1" d="M197.32,38.84,181.48,87.68h17.17l2.29-9.32h13.18l2.22,9.32H234L218,38.84Zm6.25,28.79,2-8,1.93-8.29h.22l2,8.29,1.89,8Z"/><path class="cls-1" d="M275.24,62.52a10.63,10.63,0,0,0-2.11-5.92,14.83,14.83,0,0,0-6.33-4.77,27.76,27.76,0,0,0-11.1-1.89,24.31,24.31,0,0,0-10.76,2.26,16.64,16.64,0,0,0-7.18,6.55,20.08,20.08,0,0,0-2.55,10.43,20.09,20.09,0,0,0,2.55,10.44,16.45,16.45,0,0,0,7.36,6.55,26.88,26.88,0,0,0,11.47,2.25,26.44,26.44,0,0,0,9.73-1.62,16.25,16.25,0,0,0,6.4-4.26,8.87,8.87,0,0,0,2.37-5.73l-15.24-4.74a9,9,0,0,1-.48,2.66,3.79,3.79,0,0,1-1.08,1.67,2.66,2.66,0,0,1-1.77.55,4.22,4.22,0,0,1-2.15-.55,3.76,3.76,0,0,1-1.51-2.18,15.48,15.48,0,0,1-.56-4.81,22.42,22.42,0,0,1,.41-4.85A4.1,4.1,0,0,1,254,62.12a3.87,3.87,0,0,1,2.4-.71,2.69,2.69,0,0,1,2.41,1.37,7.7,7.7,0,0,1,.7,4.33Z"/><path class="cls-1" d="M317.64,75.55V64.08a12.54,12.54,0,0,0-4.77-10.33q-4.77-3.81-14.1-3.81-9,0-13.87,3.56a12.8,12.8,0,0,0-5.44,9.84l14.35,2.07a5.37,5.37,0,0,1,1.11-3.48,3.61,3.61,0,0,1,2.67-1,3,3,0,0,1,2.37.93,4,4,0,0,1,.81,2.7V66l-11.69,2.41A14.65,14.65,0,0,0,281.57,72a9.8,9.8,0,0,0,.59,13.8c2.1,1.73,5.09,2.59,9,2.59a15.58,15.58,0,0,0,6.55-1.33,12,12,0,0,0,4.66-3.59,10.08,10.08,0,0,0,.7-1,7.36,7.36,0,0,0,2.71,3.64c2.14,1.56,5,2.33,8.69,2.33a14.92,14.92,0,0,0,6.59-1.33l.74-8.73a2.88,2.88,0,0,1-1.26.22C318.61,78.58,317.64,77.57,317.64,75.55Zm-17.28,1.63a3,3,0,0,1-1.07,1.14,3.1,3.1,0,0,1-3.55-.33,2.56,2.56,0,0,1-.74-1.92,3.31,3.31,0,0,1,.66-2.15,4,4,0,0,1,2.22-1.18l2.89-.7v3.29A3.83,3.83,0,0,1,300.36,77.18Z"/><path class="cls-1" d="M346.13,77.25a2.59,2.59,0,0,1-2.37-1A6.2,6.2,0,0,1,343.1,73V35.88h-17V75.55q0,7,3,9.91t9.84,3a21,21,0,0,0,5.14-.66,11.91,11.91,0,0,0,4-1.7l.73-9.18c-.39.1-.8.19-1.22.26A8.79,8.79,0,0,1,346.13,77.25Z"/><path class="cls-1" d="M391.05,75.55V64.08a12.54,12.54,0,0,0-4.77-10.33q-4.78-3.81-14.1-3.81-9,0-13.88,3.56a12.86,12.86,0,0,0-5.44,9.84l14.36,2.07a5.37,5.37,0,0,1,1.11-3.48A3.6,3.6,0,0,1,371,61a3,3,0,0,1,2.37.93,4,4,0,0,1,.82,2.7V66l-11.7,2.41A14.73,14.73,0,0,0,355,72a9.82,9.82,0,0,0,.59,13.8q3.15,2.6,9,2.59a15.62,15.62,0,0,0,6.55-1.33,12.1,12.1,0,0,0,4.66-3.59,8.62,8.62,0,0,0,.69-1,7.37,7.37,0,0,0,2.71,3.64c2.15,1.56,5,2.33,8.69,2.33a14.89,14.89,0,0,0,6.59-1.33l.74-8.73a2.82,2.82,0,0,1-1.26.22Q391,78.58,391.05,75.55Zm-17.28,1.63a3,3,0,0,1-1.07,1.14,3.11,3.11,0,0,1-3.56-.33,2.6,2.6,0,0,1-.74-1.92,3.25,3.25,0,0,1,.67-2.15,3.91,3.91,0,0,1,2.22-1.18l2.89-.7v3.29A3.83,3.83,0,0,1,373.77,77.18Z"/><polygon class="cls-1" points="451.8 56.98 452.1 67.04 451.95 67.04 449.29 61.12 437.59 38.84 418.95 38.84 418.95 87.69 433.89 87.69 433.89 69.56 433.6 59.49 433.75 59.49 436.41 65.48 448.1 87.69 466.75 87.69 466.75 38.84 451.8 38.84 451.8 56.98"/><path class="cls-1" d="M504.9,52.2a23.13,23.13,0,0,0-10.62-2.26,24.33,24.33,0,0,0-10.77,2.26,16.6,16.6,0,0,0-7.18,6.59,20.11,20.11,0,0,0-2.55,10.39,20.6,20.6,0,0,0,2.48,10.4,16,16,0,0,0,7.25,6.59,26.6,26.6,0,0,0,11.43,2.25,24.83,24.83,0,0,0,11.92-2.81,11.85,11.85,0,0,0,6.43-8l-13.68-3.7a4,4,0,0,1-1.49,2.37,4.89,4.89,0,0,1-2.95.81,6.44,6.44,0,0,1-3-.59,3.69,3.69,0,0,1-1.66-2.22,8.9,8.9,0,0,1-.39-1.85h23.51a17.9,17.9,0,0,0,.26-2c.07-.81.11-1.64.11-2.48a18.75,18.75,0,0,0-2.33-9.47A16,16,0,0,0,504.9,52.2Zm-13.14,9.73a4.17,4.17,0,0,1,2.59-.74,2.94,2.94,0,0,1,3,1.93,11.14,11.14,0,0,1,.63,3h-7.9a12.69,12.69,0,0,1,.28-1.66A4.45,4.45,0,0,1,491.76,61.93Z"/><path class="cls-1" d="M547,77a13.17,13.17,0,0,1-2.59.22,4.64,4.64,0,0,1-3.37-1.07A4.94,4.94,0,0,1,540,72.59V62.15h9.32V50.68H540V38.1l-17,4.74v7.84h-5.7V62.15H523v13.1A14.34,14.34,0,0,0,524.8,83a10.23,10.23,0,0,0,5.33,4.18,25.4,25.4,0,0,0,8.69,1.29,29.58,29.58,0,0,0,6-.66,15.25,15.25,0,0,0,5-1.85l-.74-9.62A7.62,7.62,0,0,1,547,77Z"/><polygon class="cls-1" points="600.69 76.07 595.36 50.69 578.64 50.69 573.31 76.07 569.09 50.69 551.48 50.69 561.54 87.69 582.71 87.69 587 69.48 591.29 87.69 612.45 87.69 622.52 50.69 604.91 50.69 600.69 76.07"/><path class="cls-1" d="M655.86,52.2a27.05,27.05,0,0,0-21.65,0A16.82,16.82,0,0,0,627,58.75a19.8,19.8,0,0,0-2.59,10.43A19.84,19.84,0,0,0,627,79.58a16.72,16.72,0,0,0,7.25,6.59,27.17,27.17,0,0,0,21.65,0,16.85,16.85,0,0,0,7.21-6.59,19.84,19.84,0,0,0,2.59-10.4,19.8,19.8,0,0,0-2.59-10.43A16.94,16.94,0,0,0,655.86,52.2ZM648.16,74A4.39,4.39,0,0,1,647,76.29a2.91,2.91,0,0,1-2,.66,3,3,0,0,1-1.92-.66A4.26,4.26,0,0,1,641.87,74a21.4,21.4,0,0,1-.41-4.78,22,22,0,0,1,.41-4.81A4.08,4.08,0,0,1,643.09,62a3.1,3.1,0,0,1,1.92-.63,3,3,0,0,1,2,.63,4.2,4.2,0,0,1,1.19,2.33,22,22,0,0,1,.41,4.81A21.4,21.4,0,0,1,648.16,74Z"/><path class="cls-1" d="M698.44,49.94a9.27,9.27,0,0,0-7,2.71,16.52,16.52,0,0,0-3.89,7.28l-.37-9.25H671.87v37h17V69.92a5.81,5.81,0,0,1,.93-3.4,5.87,5.87,0,0,1,2.55-2,9.66,9.66,0,0,1,3.85-.71A16.62,16.62,0,0,1,699,64a9.06,9.06,0,0,1,1.92.52l1.41-13.69a4.67,4.67,0,0,0-1.26-.59A8.55,8.55,0,0,0,698.44,49.94Z"/><polygon class="cls-1" points="735 87.69 753.5 87.69 739.5 65.21 752.68 50.69 734.4 50.69 723.6 63.76 723.6 35.88 706.58 35.88 706.58 87.69 723.6 87.69 723.6 80.51 728.35 74.73 735 87.69"/><path class="cls-2" d="M99.25,92.37a73.3,73.3,0,0,0-20.92-2.93A71,71,0,0,0,45,97.66L51.65,86.4l5.9-10L73.48,49.24l15,25L63.78,33,37.19,78.33l-26.59,46H29.83A66.78,66.78,0,0,1,73.4,107.52c17.62-.07,33.55,6.33,45,16.79Z"/><path class="cls-3" d="M64.25.07,32.12,54.52,0,109l5.3,7.34,5.3,8,26.59-46L63.78,33,88.43,74.26a78.7,78.7,0,0,0-10.61-.68,76.74,76.74,0,0,0-20.27,2.78l-5.9,10L45,97.66a71,71,0,0,1,33.29-8.22,73.3,73.3,0,0,1,20.92,2.93l19.11,31.94h20.33Z"/><polygon class="cls-4" points="64.25 0.07 138.69 124.31 148.12 108.41 82.94 0 64.25 0.07"/></g></g></svg>